<svg width="390" height="252" viewBox="0 0 390 252" fill="none" xmlns="http://www.w3.org/2000/svg">
    <path d="M15.9701 240.203C14.4033 239.93 12.9743 239.415 11.8169 238.707C10.6594 237.998 9.81145 237.12 9.3523 236.154C11.48 236.224 13.0738 236.279 15.0154 236.339L15.2905 234.798C12.3861 234.297 9.57882 234.227 6.82008 233.962C5.64532 233.898 4.49796 233.706 3.43032 233.396C2.29995 233.035 1.3713 232.472 0.765272 231.781C0.15924 231.089 -0.0961171 230.3 0.0324475 229.517C0.299423 225.839 0.372244 222.16 0.598769 218.506C1.00328 211.975 1.50485 205.453 1.89317 198.921C2.64556 186.233 3.31705 173.541 4.07753 160.853C4.78137 149.176 5.57421 137.499 6.31042 125.817C6.63403 120.669 6.94414 115.519 7.24078 110.367C7.9689 97.7673 8.69161 85.1696 9.40894 72.5735C10.2395 58.4159 11.1025 44.2549 11.9978 30.0906C12.1988 26.4087 13.0782 22.753 14.619 19.1945C18.3081 10.8611 26.6814 5.2204 39.9088 2.35249C44.2613 1.4066 48.7759 0.775117 53.3628 0.470612C59.7219 0.0276191 66.1278 -0.102935 72.5203 0.0802011C84.2672 0.455583 95.9008 1.46161 107.559 2.31748C116.563 2.97814 125.584 3.60877 134.62 4.08425C146.756 4.7249 158.891 5.35555 171.107 5.72092C185.669 6.16136 200.232 6.45664 214.794 6.55175C229.955 6.64684 245.14 6.58679 260.301 6.31652C277.541 6.0062 294.765 5.4106 311.948 4.38457C321.859 3.79398 331.786 3.13829 341.769 3.21839C348.317 3.21175 354.841 3.71624 361.185 4.7199C366.534 5.56148 371.564 7.0443 375.99 9.08431C384.226 12.9833 388.87 18.0934 389.743 24.5349C390.358 28.9644 389.743 33.3639 389.201 37.7633C388.473 43.5392 387.583 49.305 386.774 55.0808C385.965 61.0419 385.213 67.0029 384.461 72.9639C383.773 78.4695 383.118 83.9751 382.43 89.4806L380.003 109C379.307 114.596 378.644 120.197 377.956 125.792C377.147 132.119 376.249 138.445 375.602 144.777C375.089 149.828 374.758 154.885 374.607 159.947C374.089 177.059 373.701 194.172 373.231 211.284C373.07 217.265 372.9 223.246 372.608 229.222C372.524 230.968 372.216 232.707 371.686 234.422C370.181 239.342 365.287 242.43 357.585 243.732C354.427 244.237 351.329 244.878 348.314 245.649C344.188 246.745 339.762 247.205 335.37 247.601C332.133 247.891 328.897 248.056 325.605 248.201C313.572 248.752 301.539 249.276 289.506 249.773C283.574 250.013 277.641 250.213 271.708 250.373C244.355 251.114 216.994 251.374 189.625 250.874C171.94 250.54 154.263 250.008 136.594 249.277C116.862 248.471 97.1952 247.22 77.5362 245.709C59.8268 244.347 42.1903 242.706 24.5861 240.929C23.8661 240.854 23.146 240.819 22.248 240.749C21.3824 242.751 22.6849 244.638 22.6121 246.534C22.5393 248.346 23.4211 250.138 23.2512 252C19.5136 251.6 17.5881 250.448 17.224 248.496C16.7791 245.814 16.415 243.161 15.9701 240.203ZM20.7352 231.314C21.3033 231.448 21.8876 231.553 22.4826 231.629C30.9126 232.195 39.3263 232.796 47.7644 233.291C64.0499 234.237 80.3354 235.203 96.637 236.014C113.357 236.848 130.117 237.582 146.917 238.216C164.433 238.872 181.964 239.457 199.503 239.853C221.347 240.353 243.19 240.769 265.034 240.954C289.425 241.164 313.817 241.079 338.209 241.119C339.827 241.119 341.445 241.039 343.112 241.044C346.599 241.044 349.414 240.148 351.898 238.712C354.435 237.273 356.277 235.428 357.221 233.381C357.775 232.238 358.152 231.065 358.346 229.878C359.26 223.281 360.093 216.679 360.926 210.078C361.654 204.297 362.334 198.516 363.054 192.74C363.814 186.594 364.615 180.453 365.376 174.306C366.096 168.526 366.735 162.745 367.496 156.969C368.232 151.463 369.033 145.958 368.968 140.452C368.968 138.06 369.033 135.667 369.105 133.275L371.533 53.5142C371.702 47.9036 371.921 42.2929 372.099 36.6822C372.244 31.9875 372.374 27.2961 372.487 22.608C372.512 22.0563 372.471 21.5043 372.366 20.9563C372.075 19.655 371.257 19.1545 369.211 19.0644C368.026 19.0068 366.836 19.0068 365.651 19.0644C362.981 19.1995 360.328 19.3947 357.658 19.5649C338.565 20.7161 319.448 21.662 300.291 22.2977C279.499 22.995 258.686 23.3471 237.851 23.3537C208.993 23.3537 180.152 22.8532 151.375 21.4468C136.109 20.696 120.835 19.9753 105.609 18.9443C90.3833 17.9132 75.2386 16.5519 60.0533 15.3406C55.6453 14.9067 51.192 14.6725 46.7288 14.6399C38.1128 14.73 31.6488 17.0624 27.1992 21.592C25.1618 23.7362 23.6179 26.0457 22.6121 28.4539C20.4277 33.3589 19.6996 38.404 19.1818 43.4691C18.3728 51.3621 17.7337 59.2651 16.9975 67.1631C15.7516 80.5766 14.9696 94.0002 14.6514 107.434C14.3817 120.317 14.3197 133.2 14.4653 146.083C14.6271 157.675 15.0532 169.265 15.7435 180.853C16.3584 191.424 17.3616 201.989 18.3324 212.55C18.8097 217.88 19.5055 223.201 20.1284 228.521C20.2498 229.402 20.5167 230.298 20.7352 231.314ZM29.8123 12.4677C30.7993 12.2625 31.3414 12.1724 31.8591 12.0423C35.4257 11.0873 39.3065 10.6671 43.1854 10.8161C47.6242 11.0163 52.0549 11.2916 56.4775 11.6419C68.8635 12.6179 81.2253 13.724 93.6194 14.6449C103.662 15.379 113.721 16.0013 123.796 16.5118C138.164 17.2426 152.548 17.9533 166.94 18.4588C179.262 18.8942 191.607 19.0394 203.945 19.2896C239.954 20.0204 275.947 19.1995 311.843 17.8782C316.444 17.708 321.028 17.4945 325.597 17.2376C336.259 16.6319 346.906 15.9613 357.561 15.3607C359.785 15.2389 362.022 15.2172 364.251 15.2956C370.457 15.5158 377.584 17.8832 378.344 23.624C378.571 25.3608 378.474 27.1276 378.425 28.8593L377.179 70.2462C377.131 71.7477 377.179 73.2842 377.179 74.8058C378.328 69.6856 379.032 64.5604 379.704 59.4352C380.496 53.3825 381.265 47.3313 382.009 41.2819C382.656 35.9615 383.32 30.6411 383.749 25.3107C383.867 23.3803 383.678 21.4473 383.182 19.5399C382.155 15.1354 378.458 11.8171 371.856 9.98023C368.875 9.15618 365.77 8.5174 362.585 8.07329C354.126 6.98703 345.454 6.68175 336.85 7.16738C326.333 7.6679 315.816 8.22846 305.298 8.75899C289.436 9.5598 273.547 10.0503 257.631 10.2305C245.148 10.3756 232.649 10.4457 220.158 10.3356C206.038 10.2088 191.917 9.95018 177.797 9.55979C166.52 9.23445 155.25 8.65888 143.989 8.05826C133.771 7.52272 123.561 6.86707 113.367 6.18137C102.583 5.45563 91.8315 4.51968 81.0068 3.89404C71.3747 3.2538 61.6404 3.53912 52.1492 4.7399C45.2322 5.66585 38.8005 7.27748 33.2587 10.0703C31.7919 10.67 30.6038 11.4964 29.8123 12.4677ZM297.597 245.023C291.521 244.973 285.461 244.933 279.361 244.868C273.116 244.798 266.87 244.703 260.625 244.628C254.533 244.557 248.441 244.517 242.341 244.417C236.103 244.322 229.858 244.167 223.62 244.047C217.528 243.927 211.428 243.837 205.336 243.702C199.245 243.566 193.201 243.391 187.069 243.201C180.834 243.021 174.599 242.826 168.364 242.616C162.272 242.4 156.229 242.15 150.113 241.91C143.884 241.666 137.651 241.414 131.417 241.154C125.341 240.904 119.281 240.654 113.173 240.383C107.065 240.113 101.038 239.778 94.9543 239.457C88.7302 239.124 82.5116 238.78 76.2984 238.426C70.2307 238.093 64.1631 237.739 58.0955 237.365C51.8823 236.99 45.6852 236.534 39.4881 236.229C33.4691 235.929 27.4904 235.228 21.3824 235.178C21.2592 235.506 21.2021 235.842 21.2125 236.179C21.372 236.558 21.5831 236.928 21.8435 237.285C112.884 246.947 205.516 249.547 297.597 245.023ZM13.9718 230.979C14.2307 230.638 14.4734 230.478 14.4572 230.318C12.8392 214.072 11.1726 197.83 9.49794 181.379C9.34423 182.665 9.16625 183.751 9.09344 184.842C8.23048 198.266 7.37561 211.688 6.52884 225.108C6.44794 226.394 6.36703 227.685 6.3913 228.972C6.47995 229.501 6.65063 230.024 6.90098 230.533C9.46556 230.683 11.7875 230.829 13.9961 230.969L13.9718 230.979ZM365.643 224.552C365.586 225.083 365.521 225.613 365.481 226.149C365.441 226.684 365.392 227.225 365.424 227.76C365.424 228.176 365.594 228.591 365.683 229.002C366.258 227.505 366.509 226.004 365.667 224.542L365.643 224.552Z" fill="white"/>
</svg>