<svg width="375" height="244" viewBox="0 0 375 244" fill="none" xmlns="http://www.w3.org/2000/svg">
    <path d="M359.644 12.1894C361.151 12.4522 362.525 12.9473 363.638 13.6282C364.751 14.3092 365.566 15.1537 366.007 16.0828C363.962 16.0154 362.429 15.9624 360.562 15.9047L360.298 17.387C363.09 17.8682 365.79 17.9356 368.442 18.1907C369.572 18.2524 370.675 18.4365 371.702 18.7345C372.789 19.0814 373.681 19.6227 374.264 20.2879C374.847 20.9531 375.092 21.7115 374.969 22.4642C374.712 26.0014 374.642 29.5387 374.424 33.0518C374.035 39.3322 373.553 45.603 373.18 51.8834C372.456 64.0832 371.811 76.2879 371.079 88.4877C370.403 99.7154 369.64 110.943 368.932 122.176C368.621 127.126 368.323 132.078 368.038 137.032C367.338 149.147 366.643 161.26 365.953 173.372C365.154 186.985 364.325 200.601 363.464 214.221C363.27 217.761 362.425 221.276 360.943 224.698C357.396 232.711 349.345 238.134 336.626 240.892C332.441 241.801 328.1 242.409 323.69 242.701C317.575 243.127 311.416 243.253 305.269 243.077C293.974 242.716 282.788 241.748 271.578 240.926C262.92 240.29 254.247 239.684 245.557 239.227C233.889 238.611 222.22 238.004 210.474 237.653C196.472 237.229 182.47 236.946 168.467 236.854C153.89 236.763 139.288 236.82 124.711 237.08C108.134 237.379 91.5721 237.951 75.0495 238.938C65.5203 239.506 55.9754 240.136 46.3762 240.059C40.0796 240.066 33.8069 239.581 27.7066 238.616C22.5633 237.806 17.7267 236.38 13.471 234.419C5.55194 230.67 1.0868 225.756 0.246666 219.563C-0.344538 215.303 0.246701 211.073 0.767894 206.843C1.468 201.289 2.32369 195.745 3.10159 190.192C3.87949 184.46 4.60293 178.728 5.32638 172.996C5.98759 167.702 6.6177 162.409 7.27891 157.115L9.61261 138.346C10.2816 132.965 10.9195 127.58 11.5807 122.2C12.3586 116.117 13.2221 110.034 13.8444 103.946C14.3371 99.0882 14.656 94.2259 14.8012 89.3588C15.2991 72.9046 15.6725 56.4505 16.1236 39.9964C16.2792 34.2453 16.4426 28.4943 16.7226 22.7481C16.8034 21.0695 17.0999 19.3974 17.6094 17.7479C19.0563 13.0171 23.7626 10.0478 31.1682 8.79652C34.2052 8.3106 37.184 7.69472 40.0829 6.95332C44.0502 5.89937 48.3053 5.45661 52.5293 5.07642C55.6409 4.79729 58.7525 4.63847 61.9186 4.49891C73.4886 3.96953 85.0585 3.46582 96.6285 2.98777C102.333 2.75677 108.038 2.56426 113.742 2.41026C140.043 1.698 166.352 1.44775 192.668 1.92901C209.673 2.24985 226.67 2.76158 243.659 3.46422C262.632 4.23904 281.543 5.44219 300.446 6.89558C317.474 8.2046 334.432 9.78311 351.36 11.4916C352.052 11.5638 352.744 11.5975 353.608 11.6648C354.44 9.73981 353.188 7.92547 353.258 6.10151C353.328 4.35937 352.48 2.63646 352.643 0.84619C356.237 1.2312 358.088 2.33808 358.438 4.21498C358.866 6.79451 359.216 9.34517 359.644 12.1894ZM355.062 20.7365C354.516 20.6082 353.954 20.5068 353.382 20.4333C345.276 19.8895 337.186 19.312 329.073 18.8355C313.414 17.926 297.754 16.9971 282.08 16.2175C266.003 15.4154 249.888 14.7096 233.733 14.1C216.892 13.4695 200.035 12.9065 183.17 12.5263C162.167 12.045 141.163 11.6456 120.16 11.4675C96.7063 11.2654 73.2526 11.3472 49.7989 11.3087C48.2431 11.3087 46.6873 11.3857 45.0848 11.3809C41.7321 11.3809 39.025 12.2423 36.6369 13.6235C34.1975 15.0063 32.4256 16.7805 31.5183 18.7489C30.9853 19.848 30.6232 20.976 30.437 22.1177C29.5579 28.4607 28.7567 34.8084 27.9555 41.1562C27.2554 46.7147 26.602 52.2732 25.9096 57.8269C25.1784 63.7367 24.4082 69.6417 23.677 75.5515C22.9847 81.11 22.3701 86.6686 21.6389 92.2222C20.931 97.5161 20.1609 102.81 20.2232 108.104C20.2232 110.404 20.1609 112.704 20.0909 115.005L17.7572 191.698C17.5938 197.093 17.3838 202.488 17.2127 207.883C17.0726 212.397 16.9482 216.908 16.8393 221.415C16.8157 221.946 16.8547 222.477 16.956 223.004C17.236 224.255 18.0217 224.736 19.9898 224.823C21.1289 224.878 22.2734 224.878 23.4125 224.823C25.9796 224.693 28.5311 224.505 31.0982 224.341C49.4566 223.235 67.8384 222.325 86.2591 221.714C106.251 221.043 126.264 220.705 146.297 220.698C174.045 220.698 201.777 221.18 229.447 222.532C244.126 223.254 258.813 223.947 273.453 224.938C288.093 225.93 302.655 227.239 317.256 228.403C321.495 228.821 325.777 229.046 330.068 229.077C338.353 228.99 344.568 226.748 348.847 222.392C350.806 220.331 352.29 218.11 353.258 215.794C355.358 211.078 356.058 206.227 356.556 201.357C357.334 193.767 357.948 186.168 358.656 178.574C359.854 165.676 360.606 152.769 360.912 139.852C361.171 127.465 361.231 115.077 361.091 102.69C360.935 91.5437 360.526 80.3994 359.862 69.2567C359.271 59.0926 358.306 48.9333 357.373 38.7788C356.914 33.6534 356.245 28.5377 355.646 23.4219C355.529 22.5749 355.272 21.7135 355.062 20.7365ZM346.334 231.166C345.385 231.363 344.864 231.45 344.366 231.575C340.937 232.493 337.205 232.897 333.476 232.754C329.208 232.561 324.947 232.297 320.695 231.96C308.785 231.021 296.899 229.958 284.981 229.072C275.325 228.366 265.653 227.768 255.966 227.277C242.15 226.574 228.319 225.891 214.48 225.405C202.633 224.986 190.762 224.847 178.899 224.606C144.275 223.904 109.666 224.693 75.1507 225.963C70.727 226.127 66.3189 226.332 61.9264 226.579C51.6737 227.162 41.4365 227.806 31.1915 228.384C29.0524 228.501 26.9023 228.522 24.7583 228.447C18.7918 228.235 11.9385 225.958 11.2073 220.438C10.9895 218.769 11.0829 217.07 11.1295 215.405L12.3275 175.609C12.3741 174.166 12.3275 172.688 12.3275 171.225C11.2229 176.148 10.5461 181.077 9.90043 186.005C9.13809 191.825 8.39905 197.643 7.68339 203.46C7.06107 208.576 6.42322 213.691 6.01093 218.817C5.89676 220.673 6.07917 222.531 6.55547 224.366C7.5434 228.601 11.0984 231.791 17.4461 233.557C20.3121 234.35 23.2984 234.964 26.3608 235.391C34.4944 236.436 42.8331 236.729 51.1058 236.262C61.2185 235.781 71.3312 235.242 81.4439 234.732C96.6959 233.962 111.974 233.49 127.278 233.317C139.281 233.177 151.299 233.11 163.31 233.216C176.887 233.338 190.464 233.586 204.041 233.962C214.885 234.275 225.721 234.828 236.549 235.406C246.374 235.92 256.191 236.551 265.993 237.21C276.362 237.908 286.701 238.808 297.109 239.41C306.37 240.025 315.73 239.751 324.856 238.596C331.508 237.706 337.692 236.156 343.02 233.471C344.431 232.894 345.573 232.1 346.334 231.166ZM88.8495 7.55489C94.6915 7.60301 100.518 7.64151 106.383 7.70408C112.389 7.77145 118.394 7.8629 124.4 7.93509C130.257 8.00246 136.115 8.04095 141.98 8.13721C147.978 8.22865 153.983 8.37784 159.981 8.49335C165.838 8.60885 171.704 8.69548 177.561 8.82542C183.419 8.95535 189.23 9.12379 195.126 9.30667C201.121 9.47992 207.116 9.66761 213.111 9.86973C218.969 10.0767 224.78 10.3173 230.661 10.5483C236.65 10.7825 242.643 11.0248 248.638 11.275C254.48 11.5156 260.306 11.7563 266.18 12.0161C272.053 12.276 277.848 12.5985 283.698 12.9065C289.682 13.2273 295.662 13.5578 301.636 13.8978C307.47 14.2187 313.305 14.5588 319.139 14.9181C325.113 15.2791 331.072 15.717 337.031 16.0106C342.818 16.2993 348.567 16.9731 354.44 17.0212C354.559 16.7058 354.613 16.3825 354.603 16.0587C354.45 15.6942 354.247 15.3384 353.997 14.9951C266.458 5.70453 177.388 3.20517 88.8495 7.55489ZM361.566 21.0589C361.317 21.3862 361.083 21.5402 361.099 21.6942C362.655 37.3158 364.257 52.9325 365.867 68.7514C366.015 67.5146 366.186 66.4703 366.256 65.4211C367.086 52.5138 367.908 39.6081 368.722 26.7041C368.8 25.4672 368.878 24.2256 368.855 22.9888C368.769 22.4797 368.605 21.9769 368.364 21.4873C365.898 21.3429 363.666 21.2033 361.542 21.0686L361.566 21.0589ZM23.4203 27.2383C23.4748 26.7281 23.537 26.218 23.5759 25.7031C23.6148 25.1881 23.6615 24.6684 23.6303 24.1534C23.6303 23.754 23.467 23.3545 23.3815 22.9599C22.8291 24.3988 22.588 25.8426 23.397 27.2479L23.4203 27.2383Z" fill="white"/>
</svg>