<svg width="390" height="252" viewBox="0 0 390 252" fill="none" xmlns="http://www.w3.org/2000/svg">
    <path d="M374.03 11.7969C375.597 12.0703 377.026 12.5852 378.183 13.2933C379.341 14.0015 380.189 14.8798 380.648 15.846C378.52 15.776 376.926 15.7209 374.985 15.6608L374.71 17.2024C377.614 17.7029 380.421 17.773 383.18 18.0382C384.355 18.1024 385.502 18.2939 386.57 18.6038C387.7 18.9646 388.629 19.5275 389.235 20.2194C389.841 20.9112 390.096 21.6999 389.968 22.4827C389.701 26.1615 389.628 29.8402 389.401 33.4939C388.997 40.0255 388.495 46.5471 388.107 53.0787C387.354 65.7665 386.683 78.4594 385.922 91.1472C385.219 102.824 384.426 114.501 383.69 126.183C383.366 131.331 383.056 136.481 382.759 141.633C382.031 154.233 381.308 166.83 380.591 179.426C379.76 193.584 378.898 207.745 378.002 221.909C377.801 225.591 376.922 229.247 375.381 232.805C371.692 241.139 363.319 246.78 350.091 249.648C345.739 250.593 341.224 251.225 336.637 251.529C330.278 251.972 323.872 252.103 317.48 251.92C305.733 251.544 294.099 250.538 282.441 249.683C273.437 249.022 264.416 248.391 255.38 247.916C243.244 247.275 231.109 246.644 218.893 246.279C204.331 245.839 189.768 245.543 175.206 245.448C160.045 245.353 144.86 245.413 129.699 245.683C112.459 245.994 95.235 246.589 78.0515 247.615C68.1411 248.206 58.2145 248.862 48.2312 248.782C41.6828 248.788 35.1591 248.284 28.8148 247.28C23.4658 246.439 18.4357 244.956 14.0098 242.916C5.77401 239.017 1.13027 233.907 0.256521 227.465C-0.358317 223.036 0.256552 218.636 0.798605 214.237C1.52672 208.461 2.41665 202.695 3.22564 196.919C4.03466 190.958 4.78704 184.997 5.53942 179.036C6.22707 173.53 6.88241 168.025 7.57006 162.519L9.99713 143C10.6929 137.404 11.3562 131.803 12.0439 126.208C12.8529 119.881 13.7509 113.555 14.3982 107.223C14.9105 102.172 15.2422 97.1149 15.3932 92.0531C15.911 74.9408 16.2993 57.8285 16.7686 40.7162C16.9304 34.7351 17.1003 28.7541 17.3915 22.778C17.4756 21.0322 17.7839 19.2933 18.3138 17.5778C19.8185 12.6578 24.7131 9.56966 32.4149 8.26834C35.5734 7.76299 38.6713 7.12247 41.6862 6.35141C45.8122 5.2553 50.2375 4.79484 54.6305 4.39944C57.8666 4.10915 61.1026 3.94397 64.3953 3.79883C76.4281 3.24827 88.4608 2.72442 100.494 2.22725C106.426 1.987 112.359 1.7868 118.292 1.62663C145.645 0.885885 173.006 0.625623 200.375 1.12613C218.06 1.4598 235.737 1.99201 253.406 2.72275C273.138 3.52857 292.805 4.77983 312.464 6.29136C330.173 7.65274 347.81 9.2944 365.414 11.0712C366.134 11.1463 366.854 11.1813 367.752 11.2514C368.618 9.24936 367.315 7.36245 367.388 5.46553C367.461 3.6537 366.579 1.86188 366.749 -1.01634e-06C370.486 0.400404 372.412 1.55157 372.776 3.50354C373.221 6.18626 373.585 8.83894 374.03 11.7969ZM369.265 20.6859C368.697 20.5525 368.112 20.447 367.517 20.3706C359.087 19.805 350.674 19.2044 342.236 18.7089C325.95 17.763 309.665 16.797 293.363 15.9862C276.643 15.152 259.883 14.4179 243.083 13.7839C225.567 13.1283 208.036 12.5427 190.497 12.1473C168.653 11.6468 146.81 11.2314 124.966 11.0462C100.575 10.836 76.1827 10.921 51.7909 10.881C50.1728 10.881 48.5548 10.9611 46.8882 10.9561C43.4014 10.9561 40.586 11.852 38.1023 13.2884C35.5654 14.7265 33.7227 16.5717 32.779 18.6188C32.2247 19.7619 31.8481 20.935 31.6544 22.1224C30.7402 28.719 29.907 35.3207 29.0737 41.9224C28.3455 47.7032 27.666 53.4841 26.946 59.2599C26.1855 65.4061 25.3845 71.5473 24.6241 77.6936C23.904 83.4744 23.2649 89.2553 22.5045 95.0311C21.7683 100.537 20.9674 106.042 21.0321 111.548C21.0321 113.94 20.9673 116.333 20.8945 118.725L18.4675 198.486C18.2976 204.096 18.0792 209.707 17.9011 215.318C17.7555 220.013 17.6261 224.704 17.5128 229.392C17.4883 229.944 17.5289 230.496 17.6342 231.044C17.9255 232.345 18.7425 232.846 20.7894 232.936C21.9741 232.993 23.1643 232.993 24.349 232.936C27.0188 232.8 29.6724 232.605 32.3421 232.435C51.4349 231.284 70.5519 230.338 89.7094 229.702C110.501 229.005 131.314 228.653 152.149 228.646C181.007 228.646 209.848 229.147 238.625 230.553C253.891 231.304 269.165 232.025 284.391 233.056C299.617 234.087 314.761 235.448 329.947 236.659C334.355 237.093 338.808 237.327 343.271 237.36C351.887 237.27 358.351 234.938 362.801 230.408C364.838 228.264 366.382 225.954 367.388 223.546C369.572 218.641 370.3 213.596 370.818 208.531C371.627 200.638 372.266 192.735 373.002 184.837C374.248 171.423 375.03 158 375.349 144.566C375.618 131.683 375.68 118.8 375.535 105.917C375.373 94.3254 374.947 82.7354 374.256 71.147C373.642 60.5763 372.638 50.0106 371.668 39.4499C371.19 34.1195 370.495 28.7991 369.872 23.4787C369.75 22.5979 369.483 21.702 369.265 20.6859ZM360.188 239.532C359.201 239.737 358.659 239.828 358.141 239.958C354.574 240.913 350.693 241.333 346.815 241.184C342.376 240.984 337.945 240.708 333.523 240.358C321.136 239.382 308.775 238.276 296.381 237.355C286.338 236.621 276.279 235.999 266.204 235.488C251.836 234.757 237.452 234.047 223.059 233.541C210.738 233.106 198.393 232.961 186.055 232.71C150.046 231.98 114.053 232.8 78.1567 234.122C73.5561 234.292 68.9717 234.505 64.4034 234.762C53.7406 235.368 43.0939 236.039 32.4392 236.639C30.2145 236.761 27.9784 236.783 25.7486 236.704C19.5435 236.484 12.4161 234.117 11.6556 228.376C11.4291 226.639 11.5261 224.872 11.5747 223.141L12.8206 181.754C12.8691 180.252 12.8206 178.716 12.8206 177.194C11.6718 182.314 10.9679 187.44 10.2964 192.565C9.50359 198.618 8.73501 204.669 7.99071 210.718C7.3435 216.038 6.68014 221.359 6.25136 226.689C6.13262 228.62 6.32232 230.553 6.81768 232.46C7.84514 236.865 11.5423 240.183 18.1439 242.02C21.1246 242.844 24.2303 243.483 27.4152 243.927C35.8741 245.013 44.5465 245.318 53.15 244.833C63.6672 244.332 74.1844 243.772 84.7016 243.241C100.564 242.44 116.453 241.95 132.369 241.77C144.852 241.624 157.351 241.554 169.842 241.664C183.962 241.791 198.082 242.05 212.203 242.44C223.48 242.766 234.75 243.341 246.011 243.942C256.229 244.477 266.439 245.133 276.633 245.819C287.417 246.544 298.169 247.48 308.993 248.106C318.625 248.746 328.36 248.461 337.851 247.26C344.768 246.334 351.199 244.723 356.741 241.93C358.208 241.33 359.396 240.504 360.188 239.532ZM92.4034 6.97704C98.4792 7.0271 104.539 7.06714 110.639 7.1322C116.884 7.20227 123.13 7.29737 129.375 7.37245C135.467 7.44252 141.559 7.48255 147.659 7.58266C153.897 7.67775 160.142 7.83292 166.38 7.95304C172.472 8.07316 178.572 8.16326 184.664 8.29839C190.755 8.43353 196.799 8.60871 202.931 8.7989C209.166 8.97908 215.401 9.17427 221.636 9.38448C227.728 9.5997 233.771 9.84996 239.887 10.0902C246.116 10.3338 252.349 10.5857 258.583 10.846C264.659 11.0962 270.719 11.3465 276.827 11.6167C282.935 11.887 288.962 12.2224 295.046 12.5427C301.27 12.8764 307.488 13.22 313.702 13.5737C319.769 13.9074 325.837 14.2611 331.904 14.6348C338.118 15.0102 344.315 15.4656 350.512 15.771C356.531 16.0713 362.51 16.772 368.618 16.822C368.741 16.494 368.798 16.1577 368.788 15.821C368.628 15.4419 368.417 15.0719 368.156 14.7149C277.116 5.05267 184.484 2.45333 92.4034 6.97704ZM376.028 21.0213C375.769 21.3616 375.527 21.5218 375.543 21.6819C377.161 37.9284 378.827 54.1698 380.502 70.6214C380.656 69.3351 380.834 68.249 380.907 67.1579C381.77 53.7344 382.624 40.3124 383.471 26.8922C383.552 25.6059 383.633 24.3146 383.609 23.0283C383.52 22.4989 383.349 21.9759 383.099 21.4667C380.534 21.3166 378.213 21.1714 376.004 21.0313L376.028 21.0213ZM24.3571 27.4477C24.4138 26.9172 24.4785 26.3867 24.519 25.8511C24.5594 25.3156 24.6079 24.775 24.5756 24.2395C24.5756 23.8241 24.4057 23.4087 24.3167 22.9983C23.7423 24.4948 23.4915 25.9963 24.3329 27.4578L24.3571 27.4477Z" fill="white"/>
</svg>