<svg width="375" height="270" viewBox="0 0 375 270" fill="none" xmlns="http://www.w3.org/2000/svg">
    <path d="M359.644 257.012C361.151 256.72 362.525 256.17 363.638 255.413C364.751 254.657 365.566 253.718 366.007 252.686C363.962 252.761 362.429 252.82 360.562 252.884L360.298 251.237C363.09 250.702 365.79 250.627 368.442 250.344C369.572 250.275 370.675 250.071 371.702 249.74C372.789 249.354 373.681 248.753 374.264 248.014C374.847 247.274 375.092 246.432 374.969 245.595C374.712 241.665 374.642 237.735 374.424 233.831C374.035 226.853 373.553 219.886 373.18 212.907C372.456 199.352 371.811 185.791 371.079 172.236C370.403 159.761 369.64 147.286 368.932 134.805C368.621 129.304 368.323 123.802 368.038 118.298C367.338 104.837 366.643 91.3779 365.953 77.9205C365.154 62.7949 364.325 47.6656 363.464 32.5328C363.27 28.5991 362.425 24.6935 360.943 20.8917C357.396 11.9885 349.345 5.96208 336.626 2.89808C332.441 1.88751 328.1 1.21285 323.69 0.887515C317.575 0.414236 311.416 0.274755 305.269 0.470411C293.974 0.871457 282.788 1.94628 271.578 2.86067C262.92 3.56651 254.247 4.24025 245.557 4.74824C233.889 5.4327 222.22 6.10646 210.474 6.49682C196.472 6.96738 182.47 7.28285 168.468 7.38445C153.89 7.48605 139.288 7.4219 124.711 7.13315C108.134 6.80161 91.5721 6.16529 75.0495 5.0691C65.5203 4.43812 55.9755 3.73762 46.3762 3.82317C40.0796 3.81609 33.8069 4.35507 27.7066 5.42736C22.5633 6.32648 17.7267 7.9107 13.471 10.0902C5.55195 14.2557 1.0868 19.7153 0.246673 26.5973C-0.344531 31.3296 0.246707 36.0299 0.7679 40.7302C1.46801 46.9009 2.3237 53.061 3.1016 59.2318C3.8795 65.6004 4.60293 71.969 5.32638 78.3376C5.9876 84.2197 6.6177 90.1017 7.27892 95.9837L9.61262 116.838C10.2816 122.816 10.9195 128.8 11.5807 134.778C12.3586 141.537 13.2221 148.296 13.8444 155.061C14.3371 160.458 14.656 165.86 14.8012 171.268C15.2991 189.551 15.6725 207.833 16.1236 226.115C16.2792 232.505 16.4426 238.895 16.7226 245.28C16.8034 247.145 17.1 249.003 17.6094 250.836C19.0563 256.092 23.7626 259.391 31.1682 260.782C34.2052 261.322 37.184 262.006 40.0829 262.83C44.0502 264.001 48.3053 264.493 52.5293 264.915C55.6409 265.225 58.7525 265.402 61.9186 265.557C73.4886 266.145 85.0585 266.705 96.6285 267.236C102.333 267.493 108.038 267.706 113.742 267.878C140.043 268.669 166.352 268.947 192.668 268.412C209.673 268.056 226.67 267.487 243.659 266.707C262.632 265.846 281.543 264.509 300.446 262.894C317.474 261.439 334.432 259.686 351.36 257.787C352.052 257.707 352.744 257.67 353.608 257.595C354.44 259.734 353.188 261.75 353.258 263.776C353.328 265.712 352.48 267.626 352.643 269.615C356.237 269.188 358.088 267.958 358.438 265.872C358.866 263.006 359.216 260.172 359.644 257.012ZM355.062 247.515C354.516 247.658 353.954 247.77 353.382 247.852C345.276 248.456 337.186 249.098 329.073 249.627C313.414 250.638 297.754 251.67 282.08 252.536C266.003 253.427 249.888 254.212 233.733 254.889C216.892 255.59 200.035 256.215 183.17 256.638C162.167 257.172 141.163 257.616 120.16 257.814C96.7063 258.039 73.2526 257.948 49.7989 257.99C48.2431 257.99 46.6873 257.905 45.0848 257.91C41.7321 257.91 39.025 256.953 36.6369 255.418C34.1975 253.882 32.4256 251.911 31.5183 249.724C30.9853 248.502 30.6232 247.249 30.437 245.98C29.5579 238.933 28.7567 231.88 27.9555 224.827C27.2554 218.65 26.602 212.474 25.9096 206.304C25.1784 199.737 24.4082 193.176 23.677 186.61C22.9847 180.433 22.3701 174.257 21.6389 168.087C20.931 162.205 20.161 156.322 20.2232 150.44C20.2232 147.884 20.1609 145.328 20.0909 142.772L17.7572 57.5581C17.5938 51.5638 17.3838 45.5694 17.2127 39.5751C17.0726 34.5594 16.9482 29.5472 16.8393 24.5386C16.8157 23.9492 16.8547 23.3594 16.956 22.774C17.236 21.3837 18.0217 20.8489 19.9898 20.7527C21.1289 20.6912 22.2734 20.6912 23.4126 20.7527C25.9796 20.8971 28.5311 21.1056 31.0982 21.2874C49.4566 22.5173 67.8384 23.5279 86.2591 24.207C106.251 24.9521 126.264 25.3282 146.297 25.3353C174.045 25.3353 201.777 24.8006 229.447 23.298C244.126 22.4959 258.813 21.7259 273.453 20.6243C288.093 19.5228 302.655 18.0683 317.256 16.7743C321.495 16.3107 325.777 16.0605 330.068 16.0257C338.353 16.1219 344.568 18.6138 348.847 23.4531C350.806 25.7439 352.291 28.2114 353.258 30.7842C355.358 36.0245 356.058 41.4146 356.556 46.8261C357.334 55.2587 357.948 63.7021 358.656 72.1401C359.854 86.4709 360.606 100.812 360.912 115.164C361.171 128.928 361.231 142.692 361.091 156.456C360.935 168.84 360.526 181.223 359.862 193.604C359.271 204.897 358.306 216.185 357.373 227.468C356.914 233.163 356.245 238.847 355.646 244.531C355.529 245.472 355.272 246.43 355.062 247.515ZM346.334 13.7049C345.385 13.4857 344.864 13.3895 344.366 13.2504C340.937 12.2301 337.205 11.7812 333.476 11.9404C329.208 12.1542 324.947 12.4484 320.695 12.8227C308.785 13.8654 296.899 15.0471 284.981 16.031C275.325 16.8153 265.653 17.4801 255.966 18.0256C242.15 18.8063 228.319 19.5656 214.48 20.1057C202.633 20.5709 190.762 20.7259 178.899 20.9933C144.275 21.774 109.666 20.8971 75.1507 19.4854C70.727 19.3036 66.3189 19.0754 61.9264 18.8009C51.6737 18.1539 41.4365 17.4374 31.1915 16.7957C29.0524 16.6656 26.9023 16.6424 24.7583 16.7262C18.7918 16.9615 11.9385 19.4907 11.2073 25.6241C10.9895 27.4796 11.0829 29.3672 11.1295 31.2173L12.3275 75.434C12.3742 77.0382 12.3275 78.6799 12.3275 80.3054C11.2229 74.8352 10.5461 69.3595 9.90044 63.8839C9.13809 57.4173 8.39906 50.9524 7.68339 44.4893C7.06107 38.8051 6.42322 33.121 6.01094 27.4261C5.89677 25.3637 6.07917 23.2985 6.55548 21.2607C7.54341 16.5551 11.0984 13.0098 17.4461 11.0474C20.3122 10.167 23.2984 9.48451 26.3608 9.01005C34.4944 7.84951 42.8332 7.52335 51.1058 8.04219C61.2185 8.57692 71.3312 9.17581 81.4439 9.74263C96.6959 10.5982 111.974 11.1222 127.278 11.3147C139.281 11.4698 151.299 11.5447 163.31 11.427C176.887 11.2916 190.464 11.0153 204.041 10.5982C214.885 10.2506 225.721 9.63567 236.549 8.99399C246.374 8.42183 256.191 7.72134 265.993 6.98876C276.362 6.2134 286.701 5.21345 297.109 4.54504C306.37 3.86101 315.73 4.16584 324.857 5.44873C331.508 6.43798 337.692 8.15982 343.02 11.1436C344.431 11.7843 345.573 12.6673 346.334 13.7049ZM88.8495 262.161C94.6915 262.108 100.518 262.065 106.383 261.996C112.389 261.921 118.394 261.819 124.4 261.739C130.257 261.664 136.115 261.621 141.98 261.514C147.978 261.413 153.983 261.247 159.981 261.119C165.838 260.99 171.704 260.894 177.561 260.75C183.419 260.605 189.23 260.418 195.126 260.215C201.121 260.022 207.116 259.814 213.111 259.589C218.969 259.359 224.78 259.092 230.661 258.835C236.65 258.575 242.643 258.306 248.638 258.028C254.48 257.761 260.306 257.493 266.18 257.204C272.053 256.916 277.848 256.557 283.698 256.215C289.682 255.859 295.662 255.492 301.636 255.114C307.47 254.757 313.305 254.379 319.139 253.98C325.113 253.579 331.072 253.092 337.031 252.766C342.818 252.445 348.567 251.697 354.44 251.643C354.559 251.994 354.613 252.353 354.603 252.713C354.45 253.118 354.247 253.513 353.997 253.894C266.458 264.217 177.388 266.994 88.8495 262.161ZM361.566 247.157C361.317 246.793 361.083 246.622 361.099 246.451C362.655 229.094 364.257 211.742 365.867 194.165C366.015 195.539 366.186 196.7 366.256 197.866C367.086 212.207 367.908 226.547 368.722 240.885C368.8 242.259 368.878 243.638 368.855 245.013C368.769 245.578 368.605 246.137 368.364 246.681C365.898 246.841 363.666 246.996 361.542 247.146L361.566 247.157ZM23.4203 240.291C23.4748 240.858 23.537 241.425 23.5759 241.997C23.6148 242.569 23.6615 243.146 23.6303 243.719C23.6303 244.162 23.467 244.606 23.3815 245.045C22.8291 243.446 22.588 241.842 23.397 240.28L23.4203 240.291Z" fill="white"/>
</svg>