<svg width="489" height="468" viewBox="0 0 489 468" fill="none" xmlns="http://www.w3.org/2000/svg">
    <path d="M22.8707 19.1831C23.4011 17.303 24.4002 15.5883 25.7743 14.1994C27.1484 12.8105 28.8526 11.7929 30.7274 11.242C30.5915 13.7951 30.4846 15.7076 30.3681 18.0375L33.3593 18.3676C34.3304 14.8824 34.4664 11.5138 34.9811 8.20338C35.1057 6.7937 35.4772 5.41691 36.0786 4.13578C36.7786 2.77937 37.8709 1.66502 39.2133 0.937803C40.5557 0.210584 42.086 -0.095837 43.6051 0.0584364C50.7431 0.378798 57.8811 0.466181 64.9706 0.738004C77.6443 1.2234 90.2986 1.82527 102.972 2.29125C127.591 3.19409 152.22 3.99986 176.839 4.9124C199.496 5.75699 222.153 6.70838 244.82 7.5918C254.81 7.98012 264.804 8.35225 274.8 8.70821C299.248 9.58192 323.692 10.4492 348.133 11.3099C375.604 12.3066 403.081 13.3421 430.565 14.4165C437.709 14.6577 444.802 15.713 451.707 17.5618C467.877 21.9887 478.822 32.0364 484.387 47.9088C486.222 53.1317 487.448 58.549 488.038 64.0531C488.898 71.6839 489.151 79.3708 488.796 87.0415C488.068 101.137 486.115 115.097 484.455 129.087C483.173 139.891 481.949 150.716 481.027 161.56C479.784 176.121 478.56 190.683 477.851 205.342C476.996 222.817 476.423 240.291 476.239 257.765C476.054 275.958 476.171 294.18 476.695 312.372C477.297 333.06 478.453 353.728 480.444 374.348C481.59 386.24 482.862 398.152 482.707 410.131C482.72 417.989 481.741 425.817 479.793 433.43C478.16 439.849 475.283 445.885 471.325 451.196C463.759 461.078 453.844 466.651 441.345 467.699C432.75 468.437 424.214 467.699 415.677 467.049C404.47 466.175 393.282 465.107 382.075 464.136C370.508 463.166 358.942 462.263 347.375 461.36C336.692 460.535 326.01 459.748 315.327 458.923L277.451 456.011C266.594 455.176 255.726 454.38 244.869 453.555C232.593 452.584 220.318 451.506 208.033 450.73C198.23 450.115 188.418 449.717 178.597 449.536C145.393 448.914 112.189 448.448 78.9845 447.885C67.3791 447.691 55.7737 447.487 44.178 447.138C40.7906 447.037 37.4164 446.667 34.0877 446.031C24.5411 444.225 18.549 438.352 16.024 429.11C15.0434 425.32 13.8006 421.603 12.3045 417.985C10.1776 413.034 9.28416 407.724 8.51694 402.452C7.95366 398.569 7.63317 394.686 7.35153 390.735C6.28325 376.296 5.26678 361.857 4.30209 347.418C3.83594 340.299 3.44746 333.18 3.13669 326.061C1.69937 293.238 1.19436 260.406 2.16552 227.564C2.81297 206.342 3.84564 185.13 5.26354 163.928C6.82711 140.251 9.25502 116.651 12.1879 93.0604C14.8295 71.8098 18.0149 50.6465 21.4625 29.522C21.6082 28.658 21.6762 27.794 21.8122 26.7164C17.9275 25.6777 14.2662 27.2407 10.5855 27.1533C7.06991 27.0659 3.59313 28.1241 -0.0195923 27.9202C0.757338 23.4352 2.99101 21.1247 6.77855 20.6878C11.984 20.1539 17.1312 19.717 22.8707 19.1831ZM40.1186 24.901C39.8596 25.5828 39.6551 26.2839 39.5068 26.9979C38.4093 37.1136 37.2439 47.2099 36.2825 57.3352C34.447 76.8773 32.5726 96.4194 30.9994 115.981C29.3808 136.044 27.9564 156.156 26.7262 176.316C25.454 197.333 24.3177 218.37 23.5505 239.417C22.5794 265.629 21.7733 291.84 21.414 318.051C21.0061 347.321 21.1712 376.59 21.0935 405.86C21.0935 407.801 21.2489 409.743 21.2392 411.743C21.2392 415.927 22.9775 419.305 25.7648 422.286C28.5552 425.33 32.1355 427.541 36.1077 428.673C38.3256 429.339 40.602 429.79 42.9058 430.023C55.7058 431.12 68.5154 432.12 81.325 433.12C92.542 433.993 103.759 434.809 114.966 435.673C126.892 436.585 138.808 437.546 150.734 438.459C161.951 439.323 173.168 440.09 184.375 441.002C195.058 441.886 205.741 442.847 216.424 442.769C221.066 442.769 225.708 442.847 230.35 442.934L385.115 445.847C396.001 446.051 406.888 446.313 417.775 446.526C426.884 446.701 435.987 446.856 445.084 446.992C446.154 447.022 447.225 446.973 448.289 446.847C450.814 446.497 451.785 445.517 451.96 443.061C452.071 441.639 452.071 440.211 451.96 438.789C451.697 435.585 451.319 432.401 450.989 429.198C448.755 406.287 446.919 383.347 445.686 360.359C444.333 335.409 443.65 310.434 443.637 285.433C443.637 250.805 444.608 216.196 447.337 181.665C448.794 163.346 450.192 145.017 452.193 126.747C454.193 108.477 456.835 90.3034 459.185 72.0816C460.027 66.7921 460.482 61.4483 460.545 56.0926C460.37 45.7537 455.844 37.997 447.055 32.6577C442.895 30.2128 438.413 28.3602 433.741 27.1533C424.223 24.5321 414.434 23.6584 404.606 23.0371C389.291 22.0663 373.956 21.2994 358.631 20.416C332.604 18.921 306.557 17.9825 280.491 17.6007C255.493 17.2771 230.496 17.2026 205.498 17.3774C183.006 17.5715 160.517 18.0828 138.031 18.9112C117.52 19.649 97.019 20.8528 76.5275 22.0178C66.1846 22.5905 55.8611 23.4254 45.5377 24.1729C43.8284 24.3186 42.0901 24.6389 40.1186 24.901ZM464.76 35.7933C465.158 36.9777 465.333 37.6281 465.585 38.2494C467.438 42.5292 468.253 47.1861 467.964 51.8405C467.576 57.167 467.042 62.4837 466.362 67.7907C464.468 82.6535 462.322 97.4872 460.535 112.36C459.111 124.411 457.903 136.481 456.913 148.57C455.495 165.812 454.116 183.072 453.135 200.343C452.29 215.128 452.008 229.942 451.523 244.747C450.105 287.957 451.697 331.147 454.261 374.222C454.592 379.742 455.006 385.243 455.504 390.725C456.68 403.52 457.981 416.296 459.146 429.081C459.383 431.751 459.425 434.434 459.273 437.11C458.845 444.556 454.252 453.108 443.112 454.021C439.742 454.293 436.314 454.176 432.954 454.118L352.649 452.623C349.735 452.565 346.754 452.623 343.801 452.623C353.736 454.001 363.681 454.846 373.626 455.652C385.37 456.603 397.112 457.525 408.85 458.418C419.173 459.195 429.497 459.991 439.84 460.506C443.585 460.648 447.336 460.421 451.037 459.826C459.583 458.593 466.022 454.157 469.586 446.235C471.185 442.658 472.425 438.932 473.286 435.11C475.394 424.959 475.987 414.553 475.044 404.229C474.073 391.608 472.985 378.988 471.956 366.368C470.402 347.334 469.45 328.267 469.101 309.169C468.819 294.189 468.683 279.191 468.897 264.202C469.143 247.258 469.645 230.314 470.402 213.371C471.033 199.838 472.15 186.315 473.316 172.801C474.355 160.54 475.627 148.289 476.957 136.057C478.366 123.116 480.182 110.214 481.396 97.2251C482.638 85.6668 482.084 73.986 479.754 62.5969C477.958 54.2966 474.831 46.5789 469.411 39.9289C468.248 38.1687 466.644 36.7431 464.76 35.7933ZM13.5184 357.126C13.6155 349.835 13.6932 342.564 13.8195 335.244C13.9554 327.75 14.14 320.255 14.2857 312.761C14.4216 305.451 14.4993 298.141 14.6935 290.821C14.878 283.336 15.1791 275.841 15.4122 268.357C15.6453 261.046 15.8201 253.727 16.0823 246.417C16.3445 239.107 16.6844 231.855 17.0535 224.496C17.4031 217.015 17.7818 209.533 18.1897 202.051C18.6073 194.741 19.0929 187.489 19.5591 180.15C20.0317 172.675 20.5205 165.197 21.0255 157.715C21.5111 150.425 21.9967 143.153 22.5211 135.824C23.0455 128.494 23.6962 121.262 24.3178 113.962C24.9652 106.493 25.6321 99.0308 26.3183 91.5751C26.9658 84.2942 27.6521 77.0132 28.3772 69.7323C29.1056 62.2766 29.9894 54.8403 30.5818 47.404C31.1645 40.1813 32.5241 33.0071 32.6212 25.6777C31.9847 25.5298 31.3323 25.4613 30.6789 25.4738C29.9434 25.6652 29.2253 25.9185 28.5326 26.231C9.78443 135.476 4.74078 246.633 13.5184 357.126ZM40.7693 16.7852C41.4296 17.0959 41.7404 17.3871 42.0512 17.3677C73.5751 15.4261 105.089 13.4263 137.012 11.4167C134.516 11.2323 132.408 11.0187 130.291 10.9313C104.244 9.89582 78.2011 8.87 52.161 7.8539C49.6651 7.75683 47.1595 7.65973 44.6636 7.68886C43.6364 7.79523 42.6217 8.00005 41.6336 8.30046C41.3423 11.3779 41.0606 14.1641 40.7887 16.8143L40.7693 16.7852ZM53.239 438.779C52.2096 438.711 51.1801 438.634 50.141 438.585C49.1018 438.537 48.053 438.478 47.0138 438.517C46.2078 438.517 45.4017 438.721 44.6054 438.828C47.5091 439.517 50.4226 439.818 53.2584 438.808L53.239 438.779Z" fill="white"/>
</svg>