<svg xmlns="http://www.w3.org/2000/svg" width="129" height="380" viewBox="0 0 129 380" fill="none">
    <path d="M88.5034 365.071C86.6354 364.06 84.8073 362.956 82.9045 362.064C63.55 352.932 48.4138 338.881 36.6522 321.119C26.0525 305.058 18.3147 287.665 12.0688 269.552C-3.48511 225.633 -3.23508 177.641 12.7757 133.86C25.4555 99.2536 45.2044 68.874 68.4565 40.6052C77.1139 30.2134 86.308 20.2818 96.0011 10.851C99.7673 7.30738 104.018 4.3189 108.626 1.97574C109.823 1.24926 111.197 0.86559 112.596 0.866526C113.996 0.867461 115.368 1.25293 116.563 1.98101C117.394 2.50463 118.119 3.17811 118.704 3.96713C118.974 4.26135 119.177 4.61128 119.298 4.99242C119.418 5.37356 119.454 5.77667 119.403 6.17333C119.351 6.57 119.214 6.95061 119 7.28848C118.786 7.62636 118.501 7.91326 118.164 8.12904C116.5 9.22234 114.778 10.2227 113.004 11.1255C110.518 12.3863 108.296 14.1117 106.458 16.2085C88.0177 37.6566 70.9451 60.0999 56.8016 84.6685C42.1957 110.023 31.2194 136.877 25.4474 165.559C17.6277 203.029 20.9464 241.963 34.9931 277.546C42.8367 297.363 53.2488 316.059 65.9619 333.154C70.8848 339.66 76.7139 345.427 83.2717 350.276C87.064 353.172 91.0165 355.829 94.9243 358.551C95.6575 358.958 96.4233 359.302 97.214 359.582C96.6159 356.969 94.9645 355.437 93.7638 353.647C91.3097 350.026 88.6945 346.513 86.2713 342.875C85.3443 341.604 84.6957 340.151 84.3675 338.611C83.83 334.991 86.0741 333.557 89.5516 334.778C90.6587 335.229 91.6514 335.922 92.4573 336.805C94.3986 338.79 96.2007 340.905 97.8507 343.138C101.711 348.687 105.442 354.327 109.114 359.99C113.573 366.906 118.837 373.059 126.356 376.898C127.125 377.468 127.798 378.154 128.353 378.933C127.619 379.366 126.793 379.619 125.943 379.671C125.093 379.723 124.242 379.572 123.461 379.232C117.89 377.75 112.088 377.335 106.36 378.008C101.601 378.443 96.8049 378.147 92.1367 377.13C79.8358 374.633 67.9391 370.75 55.9678 367.078C54.6155 366.753 53.3503 366.137 52.2603 365.273C51.1704 364.408 50.2818 363.316 49.6563 362.073C48.6811 359.998 49.1144 358.024 51.2107 357.052C52.5979 356.311 54.1594 355.959 55.7294 356.035C58.6707 356.445 61.5687 357.121 64.388 358.053C70.9859 360.21 77.5364 362.574 84.1184 364.83C85.4105 365.285 86.7444 365.596 88.0574 365.979L88.5034 365.071Z" fill="white"/>
</svg>