<svg width="1113" height="45" viewBox="0 0 1113 45" fill="none" xmlns="http://www.w3.org/2000/svg">
<path d="M18.4234 11.8544C13.5928 13.3906 8.68008 14.8567 3.84871 16.4622C-0.982659 18.0676 -0.13009 23.3355 4.8483 23.3922C73.5753 21.9616 142.32 19.0091 211.054 16.9558C279.788 14.9026 348.602 13.1269 417.413 11.628C456.175 10.8244 495.024 9.74503 533.613 9.63135L530.974 0.952911C511.2 7.83073 491.536 14.8714 471.98 22.0746C465.897 24.2884 470.194 33.1241 476.523 31.1898C489.849 26.9829 503.175 22.7069 516.581 18.7085L510.105 11.716L497.584 25.4106C493.383 29.9291 501.053 34.0985 505.803 32.423C513.55 29.813 521.216 27.0636 528.881 24.3835L520.605 22.4212C523.377 27.2052 524.301 32.5829 523.251 37.8109C522.943 38.8224 522.994 39.8879 523.398 40.8781C523.802 41.8683 524.542 42.7406 525.528 43.3892C526.513 44.0378 527.702 44.4348 528.95 44.5319C530.198 44.6289 531.452 44.422 532.558 43.9362C545.183 38.2637 557.172 31.6626 568.383 24.2111L557.722 20.3534C557.69 22.1143 558.104 23.8625 558.937 25.4839C559.77 27.1052 561.003 28.5632 562.556 29.7627C564.109 30.9622 565.946 31.8763 567.948 32.4451C569.95 33.0139 572.072 33.2247 574.174 33.0637C583.97 32.7603 590.03 25.2879 594.087 18.7614L582.832 16.0733C583.939 28.1936 600.032 28.6539 611.235 28.6432L664.098 28.4845L771.98 28.192C843.902 27.9509 915.825 27.6407 987.749 27.2612C1028.17 26.9608 1068.42 26.2434 1108.77 24.9044C1109.87 24.9169 1110.93 24.5645 1111.71 23.9247C1112.5 23.2849 1112.94 22.4101 1112.95 21.4927C1112.97 20.5754 1112.54 19.6907 1111.77 19.0331C1111 18.3756 1109.95 17.9991 1108.85 17.9866C1040.65 16.3099 972.521 16.4328 904.302 16.9698C836.083 17.5068 767.87 17.4904 699.737 17.8208L642.558 18.0686L612.848 18.2143C610.774 18.1907 595.574 19.4012 595.281 15.9386C595.236 14.8543 594.778 13.8085 593.975 12.9523C593.172 12.0961 592.065 11.4736 590.813 11.1745C589.561 10.8755 588.229 10.9154 587.009 11.2885C585.789 11.6615 584.745 12.3484 584.026 13.2502C582.433 16.4516 579.956 19.2918 576.795 21.5395C574.791 22.6237 570.305 23.0567 570.669 20.2242C570.668 19.306 570.378 18.4031 569.829 17.6053C569.279 16.8076 568.49 16.1427 567.538 15.677C566.587 15.2114 565.507 14.9612 564.405 14.9511C563.304 14.9411 562.22 15.1716 561.261 15.6199C550.275 22.5366 538.725 28.8086 526.692 34.3907L535.999 40.5161C537.766 32.5125 536.345 24.2359 531.953 16.9464C531.096 15.8326 529.781 15.0175 528.256 14.6558C526.73 14.2942 525.101 14.411 523.677 14.9839L500.845 23.3028L509.063 30.3152L521.086 16.6148C521.57 15.7919 521.766 14.8715 521.654 13.958C521.542 13.0444 521.125 12.1744 520.451 11.4464C519.777 10.7184 518.872 10.1616 517.84 9.83923C516.807 9.51685 515.688 9.44162 514.61 9.62231C501.284 13.8984 487.796 17.7576 474.472 21.8262L478.932 31.0097C498.515 23.8299 518.015 16.649 537.269 9.25792C538.297 8.74344 539.096 7.96444 539.547 7.03754C539.997 6.11065 540.075 5.08589 539.769 4.1164C539.462 3.1469 538.787 2.28487 537.845 1.65959C536.904 1.03432 535.746 0.679343 534.545 0.647771C465.813 2.56267 396.93 3.09212 328.195 5.21455C259.46 7.33699 190.563 9.1808 121.821 11.9258C83.0492 13.4904 44.2794 14.9165 5.57925 17.5197L7.49877 23.8376L21.5883 18.1172C24.9238 16.7023 22.6557 11.8334 19.0745 12.9688L18.4234 11.8544Z" fill="white"/>
</svg>
