<svg width="1065" height="238" viewBox="0 0 1065 238" fill="none" xmlns="http://www.w3.org/2000/svg">
<path d="M1410.38 237.062C1380.94 221.084 1353.93 202.109 1330.01 180.594L1336.21 176.821L1374.35 221.32C1374.97 221.99 1375.27 222.815 1375.22 223.641C1375.17 224.468 1374.76 225.24 1374.07 225.817C1373.38 226.394 1372.46 226.736 1371.47 226.779C1370.48 226.823 1369.49 226.566 1368.68 226.056C1347.43 214.133 1326.49 201.917 1305.52 189.919L1311.3 186.204C1320.38 199.558 1329.6 212.82 1338.82 226.083C1340.81 229.022 1335.71 231.71 1332.77 229.763L1255.08 178L1260.88 173.281L1298.2 215.998C1298.72 216.67 1298.95 217.461 1298.86 218.241C1298.77 219.02 1298.36 219.74 1297.7 220.281C1297.03 220.822 1296.16 221.151 1295.23 221.213C1294.29 221.276 1293.35 221.068 1292.55 220.625L1198.68 162.735L1204.48 158.017L1255.39 209.873C1258.56 213.077 1253.28 216.97 1249.46 214.575C1212.38 191.659 1174.04 170.292 1134.44 150.474L1139.23 145.289L1191.69 200.362C1194.84 203.675 1189.79 206.928 1186.04 204.988L1073.67 145.701L1080.31 142.654C1085.1 157.964 1094.64 172.077 1107.95 183.553C1110.94 186.065 1106.97 190.239 1103.15 188.738C1070.4 175.119 1038.78 159.586 1008.55 142.259L1015.06 138.191C1022.04 151.105 1031.14 163.193 1042.09 174.096C1045.5 177.444 1039.88 181.851 1035.96 179.219C1007.05 160.019 974.935 144.541 940.728 133.329L946.638 126.949C957.785 141.351 971.324 154.399 986.831 165.683C990.95 168.788 987.12 175.661 981.718 173.06L866.12 117.485L872.489 110.718L908.119 150.311C908.87 151.143 909.279 152.15 909.284 153.174C909.288 154.199 908.887 155.185 908.142 155.979C907.398 156.773 906.353 157.33 905.167 157.566C903.982 157.801 902.723 157.7 901.586 157.28L813.554 121.037L820.251 113.866C830.418 123.022 838.579 133.581 844.338 145.033C844.753 145.94 844.85 146.919 844.618 147.852C844.385 148.785 843.833 149.633 843.026 150.295C842.22 150.956 841.194 151.403 840.071 151.581C838.948 151.759 837.777 151.662 836.697 151.3L714.006 99.1583L720.104 90.569L768.469 127.685C773.415 131.567 768.949 140.034 762.324 136.603L687.178 98.6856L694.976 90.4291L734.015 125.104C738.765 129.407 732.412 136.065 726.053 133.563C699.918 122.861 674.746 110.514 650.764 96.6317L659.053 87.7687C670.803 95.6419 680.801 105.194 688.552 115.953C689.401 116.998 689.84 118.23 689.807 119.47C689.774 120.711 689.27 121.898 688.368 122.86C687.465 123.822 686.21 124.51 684.784 124.825C683.357 125.14 681.832 125.067 680.427 124.615C652.278 114.163 625.399 101.348 600.218 86.3735L609.847 78.4669L623.031 96.8234C623.901 97.8487 624.362 99.0686 624.347 100.304C624.332 101.539 623.842 102.724 622.948 103.683C622.054 104.643 620.805 105.327 619.384 105.635C617.962 105.942 616.444 105.857 615.054 105.392L526.027 75.9453L533.513 67.9829L561.297 104.21C564.1 108.037 559.806 114.404 554.288 111.676C519.826 95.3555 485.364 79.035 450.558 63.2283L457.435 55.7455C465.723 66.2053 474.158 76.5726 482.43 87.1421C485.596 91.2397 480.826 98.1032 474.944 95.1045L403.452 63.47L411.25 55.2131L454.095 93.287C459.805 98.3855 450.776 104.025 444.614 101.101L361.257 54.9676L371.453 48.6983C378.225 58.9443 387.698 67.8223 399.129 74.6356C405.063 78.1995 399.361 86.8406 392.687 83.7389C364.471 70.6879 336.223 57.8558 308.367 44.1814L313.989 36.0888C330.806 48.5099 345.515 62.7937 357.678 78.5164C360.512 82.124 356.298 87.9429 351.144 85.4856L259.842 44.0153L266.727 38.3206C272.722 49.4162 282.004 59.1266 293.67 66.5081C294.5 67.1085 295.117 67.8873 295.45 68.754C295.783 69.6208 295.818 70.5401 295.551 71.4054C295.283 72.2707 294.725 73.0467 293.94 73.6433C293.155 74.24 292.176 74.6326 291.116 74.7762C286.331 74.7972 281.565 73.9301 277.16 72.2371C272.756 70.544 268.825 68.0675 265.65 64.987C261.912 61.3771 257.28 58.4848 252.095 56.5229C248.928 56.111 246.024 55.7336 244.683 58.4633C244.539 59.4498 243.327 61.3026 244.846 61.9469L240.448 70.8691L152.441 28.9336L159.943 20.8618C170.313 32.11 178.738 44.4907 184.96 57.6227C185.513 58.7298 185.666 59.9381 185.399 61.0943C185.133 62.2505 184.458 63.3028 183.46 64.1178C182.462 64.9329 181.187 65.474 179.795 65.6729C178.404 65.8718 176.959 65.7196 175.643 65.2352C144.723 51.7446 115.528 35.553 88.5663 16.9425L99.0749 10.3784L116.438 42.4584C119.312 47.6349 111.139 52.9389 105.649 49.0976C91.7387 38.4651 67.8233 20.8353 48.3908 30.4832C47.6621 30.939 46.828 31.2671 45.9361 31.4491C45.044 31.6311 44.1118 31.6632 43.1925 31.5437C42.2731 31.4241 41.385 31.1553 40.5786 30.7525C39.772 30.3497 39.0631 29.8209 38.4926 29.1962C36.1249 26.2495 33.0935 23.7061 29.5749 21.7144C26.0563 19.7227 22.121 18.3224 17.9993 17.5959C13.9919 16.891 9.88435 16.8504 5.91305 17.4765C1.23339 18.2083 -1.13467 19.6877 -5.84139 17.847C-27.0958 9.61045 -47.6176 -0.876562 -69.0076 -10.0243L-62.1302 -17.5071C-52.6801 -6.23851 -45.7621 6.32641 -41.729 19.5474C-40.1909 24.6619 -47.8507 26.4581 -51.9654 24.2476C-79.3451 10.0767 -106.036 -5.12166 -132.808 -19.772L-122.439 -28.141L-75.0809 20.4605C-69.0038 26.7236 -78.8687 33.4826 -86.0903 29.5279C-115.873 12.8873 -144.053 -5.7194 -170.345 -26.1047L-160.7 -34.1211L-129.276 4.81308C-128.242 5.85227 -127.698 7.16342 -127.75 8.48907C-127.802 9.81471 -128.448 11.0592 -129.559 11.9781C-130.671 12.8969 -132.168 13.4237 -133.758 13.4552C-135.347 13.4867 -136.913 13.0205 -138.15 12.1482L-198.168 -28.0468L-189.584 -33.409C-187.378 -29.4131 -186.659 -24.9931 -187.522 -20.7363C-188.385 -16.4796 -190.789 -12.5874 -194.415 -9.57625C-195.152 -8.85017 -196.143 -8.33597 -197.259 -8.10192C-198.374 -7.86788 -199.56 -7.92507 -200.659 -8.26589C-231.965 -17.0241 -261.846 -29.2509 -289.483 -44.6112C-295.333 -47.8291 -288.815 -54.6886 -283.097 -51.4878C-256.104 -36.3966 -226.749 -24.6025 -195.96 -16.4789L-202.336 -15.1857C-199.962 -16.9662 -198.385 -19.3711 -197.851 -22.0278C-197.316 -24.6845 -197.853 -27.4448 -199.379 -29.88C-199.84 -30.857 -199.912 -31.9216 -199.583 -32.9128C-199.254 -33.904 -198.542 -34.7676 -197.556 -35.3721C-196.57 -35.9767 -195.364 -36.2894 -194.12 -36.2628C-192.876 -36.2362 -191.662 -35.8717 -190.663 -35.2247L-129.148 3.93636L-138.153 11.254L-170.464 -27.1255C-174.938 -32.3984 -167.005 -39.7436 -160.703 -35.0149C-133.655 -15.3273 -105.142 2.89441 -75.3484 19.5319L-86.342 28.49C-101.886 12.172 -117.42 -4.21889 -132.943 -20.683C-138.541 -26.5487 -129.532 -32.9725 -122.706 -29.0692C-95.9347 -14.4189 -69.1272 0.906076 -43.0599 16.6935L-53.4281 21.3769C-56.3688 9.80836 -62.1298 -1.20891 -70.3474 -10.9805C-73.5457 -14.8588 -68.92 -20.7355 -63.4855 -18.3535C-41.8475 -9.06179 -20.3095 -0.00655415 1.39261 8.84672L-3.75461 8.17745C5.63307 5.15123 16.0824 4.90469 25.8902 7.47808C35.698 10.0515 44.2858 15.2932 50.2536 22.3484L40.3554 21.0614C66.5162 7.70886 95.0108 24.3704 114.927 39.9165L104.122 46.665L87.0231 14.6197C86.4525 13.4218 86.3579 12.115 86.753 10.8961C87.1482 9.67714 88.0116 8.61186 89.2138 7.86094C90.416 7.11001 91.8919 6.7139 93.4188 6.73235C94.9455 6.75078 96.441 7.18293 97.6798 7.96334C123.727 25.9209 151.989 41.4709 181.945 54.3266L172.628 61.9391C167.65 49.5855 160.262 37.9418 150.77 27.4878C147.06 23.4312 152.373 16.5266 158.404 19.4328L246.266 62.3548C252.808 65.4393 249.15 73.8992 241.867 71.277C230.126 66.958 232.279 53.1644 241.775 48.9262C245.071 47.6001 248.772 47.07 252.473 47.3935C256.173 47.7171 259.731 48.8821 262.755 50.7607C271.397 55.1234 279.16 66.4084 290.075 66.2639L287.52 74.5324C274.694 65.8496 264.457 54.7874 257.675 42.2814C257.311 41.4631 257.232 40.5834 257.444 39.7451C257.657 38.9068 258.153 38.1447 258.875 37.5475C259.597 36.9503 260.515 36.5428 261.522 36.3727C262.528 36.2026 263.582 36.2768 264.56 36.5868L356.042 77.7454L349.508 84.7146C337.786 69.8107 323.759 56.2272 307.807 44.3322C303.077 40.8131 307.299 33.0965 313.445 36.1296C342.021 48.5573 370.089 61.701 398.321 74.6424L392.011 83.7625C378.657 75.7151 367.66 65.2157 359.913 53.1176C356.395 47.7457 365.136 44.0794 370.11 46.8484L453.647 92.6705L444.166 100.485L401.485 62.2087C400.653 61.2036 400.218 60.0147 400.242 58.814C400.266 57.6133 400.749 56.4633 401.619 55.531C402.49 54.5986 403.704 53.9325 405.085 53.6289C406.465 53.3253 407.942 53.3999 409.299 53.8424L480.414 86.2099L473.045 94.2988C464.905 83.7465 456.782 73.0846 448.791 62.4398C445.84 58.7054 450.266 52.3559 455.652 55.0667C490.098 71.4968 524.74 87.5055 559.53 103.422L552.504 110.997L524.128 75.1397C523.313 74.1745 522.882 73.0273 522.897 71.8665C522.912 70.7057 523.373 69.5923 524.212 68.6895C525.051 67.7868 526.224 67.1423 527.559 66.8505C528.894 66.5586 530.32 66.6348 531.63 67.0679C561.446 76.5295 591.131 85.974 621.544 95.9599L613.566 104.528L600.846 86.6787C599.762 85.5485 599.205 84.138 599.28 82.7188C599.355 81.2997 600.058 79.9721 601.252 78.9909C602.447 78.0098 604.05 77.4445 605.752 77.4041C607.455 77.3636 609.137 77.8508 610.475 78.7718C634.694 93.098 660.524 105.364 687.561 115.378L679.435 124.039C672.352 114.202 663.245 105.45 652.551 98.2044C651.364 97.1853 650.646 95.8538 650.531 94.4574C650.415 93.061 650.91 91.6944 651.923 90.6115C652.936 89.5286 654.398 88.8032 656.038 88.5696C657.678 88.336 659.385 88.6101 660.841 89.3414C683.715 102.685 707.745 114.548 732.711 124.823L724.882 133.299L685.99 98.5312C680.413 93.4499 689.441 87.8108 695.308 90.9191L770.389 129.275L762.723 137.549L714.406 100.104C709.576 96.3482 713.766 88.8513 720.52 91.405L843.014 143.968L835.389 150.125C829.925 139.445 822.257 129.598 812.746 121.044C808.707 117.392 814.109 111.727 819.443 113.873L907.311 150.317L900.91 157.304L865.428 117.618C862.297 114.196 866.791 108.302 871.813 110.742L987.099 166.612L981.985 173.988C965.873 161.961 951.82 148.136 940.249 132.932C939.594 132.179 939.243 131.276 939.249 130.361C939.256 129.446 939.619 128.568 940.285 127.86C940.951 127.152 941.883 126.652 942.939 126.435C943.996 126.219 945.12 126.298 946.142 126.661C981.102 138.24 1013.8 154.37 1042.98 174.435L1036.72 179.541C1025.45 168.011 1016.08 155.293 1008.89 141.745C1006.98 138.258 1011.92 135.772 1015.4 137.677C1044.89 154.728 1075.8 169.947 1107.86 183.207L1103.07 188.392C1088.8 175.993 1078.63 160.751 1073.62 144.241C1072.62 140.984 1077.51 139.721 1080.25 141.194L1192.62 200.482L1186.96 205.108L1134.35 150.128C1131.9 147.575 1135.38 143.113 1139.15 144.943C1179.48 164.862 1218.55 186.572 1256.18 209.976L1250.38 214.695L1199.6 162.856C1196.42 159.762 1201.57 155.851 1205.38 158.247L1299.13 216.118L1293.33 220.837L1256 178.12C1255.23 177.456 1254.79 176.571 1254.78 175.659C1254.78 174.747 1255.21 173.883 1255.97 173.258C1256.36 172.948 1256.81 172.705 1257.31 172.545C1257.81 172.384 1258.34 172.309 1258.88 172.322C1259.98 172.349 1261.03 172.737 1261.8 173.401L1337.56 224.578L1331.63 228.386C1322.55 215.032 1313.48 201.677 1304.26 188.415C1302.15 185.349 1307.32 183.117 1310.16 184.827C1331.28 196.732 1352.55 208.545 1373.64 220.669L1367.86 225.278L1330.03 180.485C1329.4 179.781 1329.12 178.907 1329.26 178.056C1329.4 177.204 1329.94 176.445 1330.76 175.945C1331.58 175.444 1332.62 175.244 1333.65 175.388C1334.67 175.531 1335.6 176.008 1336.23 176.712C1359.55 197.898 1385.92 216.603 1414.7 232.373C1418.56 234.44 1413.73 238.95 1410.39 236.952L1410.38 237.062Z" fill="white"/>
</svg>
