<svg width="385" height="278" viewBox="0 0 385 278" fill="none" xmlns="http://www.w3.org/2000/svg">
    <path d="M369.235 13.0141C370.781 13.3156 372.192 13.8836 373.335 14.6649C374.477 15.4461 375.314 16.4151 375.768 17.481C373.667 17.4037 372.094 17.3429 370.177 17.2767L369.906 18.9773C372.773 19.5294 375.544 19.6067 378.267 19.8994C379.427 19.9702 380.56 20.1814 381.614 20.5233C382.73 20.9213 383.646 21.5423 384.245 22.3055C384.843 23.0687 385.095 23.9388 384.968 24.8024C384.704 28.8607 384.633 32.9189 384.409 36.9496C384.01 44.1551 383.514 51.3496 383.131 58.5551C382.388 72.552 381.725 86.5544 380.975 100.551C380.28 113.433 379.497 126.314 378.77 139.201C378.451 144.881 378.145 150.563 377.852 156.246C377.133 170.146 376.42 184.043 375.712 197.939C374.892 213.557 374.04 229.179 373.156 244.805C372.958 248.867 372.089 252.899 370.568 256.825C366.927 266.018 358.661 272.241 345.603 275.405C341.306 276.448 336.849 277.145 332.321 277.481C326.044 277.97 319.72 278.114 313.409 277.912C301.813 277.497 290.329 276.388 278.82 275.443C269.931 274.715 261.026 274.019 252.106 273.494C240.126 272.788 228.146 272.092 216.087 271.689C201.711 271.203 187.336 270.877 172.96 270.772C157.993 270.667 143.003 270.734 128.036 271.032C111.017 271.374 94.0141 272.031 77.0509 273.163C67.2675 273.815 57.4681 274.538 47.6129 274.45C41.1484 274.457 34.7084 273.9 28.4454 272.793C23.165 271.865 18.1994 270.229 13.8302 267.978C5.7 263.677 1.1158 258.04 0.253254 250.934C-0.353709 246.047 0.253285 241.194 0.788381 236.34C1.50716 229.969 2.38567 223.608 3.18432 217.236C3.98296 210.66 4.7257 204.084 5.46844 197.508C6.14727 191.434 6.79418 185.361 7.47305 179.287L9.86895 157.754C10.5558 151.581 11.2107 145.402 11.8895 139.229C12.6882 132.25 13.5747 125.271 14.2136 118.286C14.7194 112.713 15.0468 107.135 15.1959 101.551C15.707 82.6728 16.0904 63.7949 16.5536 44.9171C16.7133 38.3189 16.8811 31.7208 17.1686 25.1282C17.2516 23.2022 17.556 21.2839 18.079 19.3914C19.5645 13.9638 24.3963 10.557 31.9994 9.12144C35.1173 8.56395 38.1755 7.85735 41.1518 7.00673C45.2249 5.79753 49.5935 5.28956 53.9301 4.85337C57.1247 4.53312 60.3193 4.35091 63.5698 4.19079C75.4483 3.58343 87.3268 3.00552 99.2053 2.45706C105.062 2.19203 110.919 1.97116 116.775 1.79448C143.778 0.977303 170.788 0.690188 197.806 1.24234C215.264 1.61043 232.715 2.19755 250.157 3.00368C269.636 3.89264 289.051 5.27301 308.458 6.94049C325.94 8.44233 343.351 10.2534 360.729 12.2135C361.44 12.2963 362.151 12.335 363.037 12.4123C363.892 10.2037 362.606 8.12209 362.678 6.02945C362.75 4.03069 361.879 2.054 362.047 1.42555e-05C365.737 0.441731 367.637 1.71167 367.997 3.86504C368.436 6.82454 368.795 9.75091 369.235 13.0141ZM364.531 22.8202C363.97 22.673 363.393 22.5567 362.806 22.4724C354.484 21.8484 346.178 21.1859 337.848 20.6392C321.771 19.5957 305.695 18.53 289.602 17.6355C273.097 16.7153 256.551 15.9055 239.966 15.2061C222.676 14.4828 205.369 13.8368 188.054 13.4006C166.491 12.8484 144.928 12.3902 123.364 12.1859C99.2851 11.954 75.206 12.0478 51.1269 12.0036C49.5296 12.0036 47.9323 12.092 46.2871 12.0865C42.8449 12.0865 40.0657 13.0748 37.6139 14.6595C35.1094 16.246 33.2903 18.2815 32.3588 20.5398C31.8116 21.8008 31.4398 23.095 31.2486 24.4048C30.3462 31.6821 29.5236 38.9649 28.701 46.2477C27.9822 52.625 27.3114 59.0023 26.6006 65.3741C25.8499 72.1544 25.0591 78.9292 24.3084 85.7096C23.5976 92.0869 22.9667 98.4642 22.216 104.836C21.4892 110.91 20.6986 116.983 20.7625 123.057C20.7625 125.696 20.6985 128.335 20.6267 130.975L18.2307 218.964C18.063 225.154 17.8474 231.344 17.6717 237.533C17.5279 242.712 17.4002 247.888 17.2883 253.059C17.2641 253.668 17.3042 254.277 17.4082 254.882C17.6957 256.317 18.5023 256.869 20.5228 256.969C21.6924 257.032 22.8674 257.032 24.0369 256.969C26.6724 256.82 29.292 256.604 31.9275 256.417C50.7755 255.147 69.6474 254.103 88.5593 253.402C109.084 252.632 129.631 252.244 150.199 252.237C178.686 252.237 207.158 252.789 235.566 254.34C250.636 255.169 265.714 255.964 280.745 257.101C295.775 258.239 310.726 259.74 325.717 261.077C330.068 261.555 334.464 261.814 338.87 261.85C347.376 261.75 353.757 259.177 358.15 254.18C360.161 251.815 361.685 249.267 362.678 246.61C364.834 241.199 365.553 235.634 366.064 230.046C366.863 221.339 367.494 212.62 368.22 203.907C369.45 189.11 370.222 174.301 370.536 159.482C370.803 145.27 370.864 131.057 370.72 116.845C370.56 104.057 370.14 91.2716 369.458 78.4875C368.851 66.8262 367.861 55.1704 366.903 43.5201C366.431 37.6398 365.745 31.7705 365.13 25.9012C365.01 24.9294 364.746 23.9411 364.531 22.8202ZM355.57 264.246C354.596 264.472 354.06 264.572 353.549 264.715C350.028 265.769 346.197 266.232 342.368 266.068C337.986 265.847 333.613 265.543 329.247 265.157C317.019 264.08 304.816 262.86 292.581 261.844C282.667 261.034 272.737 260.348 262.791 259.785C248.608 258.978 234.408 258.194 220.2 257.637C208.036 257.156 195.849 256.996 183.67 256.72C148.122 255.914 112.591 256.82 77.1547 258.277C72.6131 258.465 68.0874 258.701 63.5777 258.984C53.0516 259.652 42.5415 260.392 32.0233 261.055C29.8271 261.189 27.6197 261.213 25.4185 261.126C19.2929 260.883 12.2569 258.272 11.5062 251.939C11.2826 250.023 11.3784 248.074 11.4263 246.163L12.6562 200.506C12.7041 198.85 12.6562 197.155 12.6562 195.476C11.5221 201.125 10.8273 206.779 10.1644 212.433C9.3818 219.11 8.62304 225.785 7.8883 232.459C7.24938 238.328 6.5945 244.198 6.17122 250.078C6.05404 252.207 6.24129 254.34 6.7303 256.444C7.74456 261.303 11.3944 264.964 17.9113 266.99C20.8538 267.899 23.9197 268.604 27.0637 269.094C35.4142 270.292 43.9754 270.629 52.4686 270.093C62.851 269.541 73.2333 268.923 83.6157 268.337C99.2744 267.454 114.96 266.913 130.672 266.714C142.995 266.554 155.334 266.477 167.665 266.598C181.604 266.738 195.543 267.023 209.482 267.454C220.615 267.813 231.74 268.448 242.857 269.11C252.944 269.701 263.023 270.424 273.086 271.181C283.732 271.982 294.346 273.014 305.032 273.704C314.54 274.411 324.15 274.096 333.519 272.771C340.348 271.75 346.697 269.972 352.168 266.891C353.616 266.229 354.789 265.317 355.57 264.246ZM91.2188 7.69692C97.2166 7.75213 103.198 7.7963 109.22 7.86808C115.386 7.94538 121.551 8.05029 127.717 8.13312C133.731 8.21042 139.744 8.25458 145.766 8.36501C151.924 8.46992 158.089 8.64109 164.247 8.77361C170.261 8.90613 176.282 9.00551 182.296 9.15459C188.31 9.30367 194.276 9.49692 200.33 9.70674C206.484 9.90551 212.639 10.1208 218.794 10.3527C224.808 10.5902 230.774 10.8662 236.812 11.1313C242.961 11.4 249.113 11.6779 255.268 11.965C261.266 12.2411 267.248 12.5172 273.278 12.8153C279.307 13.1135 285.257 13.4834 291.263 13.8368C297.407 14.2049 303.546 14.584 309.68 14.9742C315.67 15.3423 321.659 15.7325 327.649 16.1447C333.783 16.5589 339.901 17.0613 346.018 17.3981C351.96 17.7294 357.862 18.5024 363.892 18.5576C364.013 18.1957 364.07 17.8248 364.059 17.4534C363.902 17.0352 363.694 16.627 363.437 16.2331C273.564 5.574 182.118 2.70647 91.2188 7.69692ZM371.207 23.1901C370.952 23.5656 370.712 23.7423 370.728 23.919C372.325 41.8416 373.971 59.7588 375.624 77.9078C375.776 76.4888 375.951 75.2906 376.023 74.0869C376.875 59.2784 377.719 44.4717 378.555 29.6668C378.635 28.2478 378.715 26.8233 378.691 25.4042C378.603 24.8202 378.435 24.2433 378.187 23.6816C375.656 23.5159 373.364 23.3558 371.183 23.2012L371.207 23.1901ZM24.0449 30.2797C24.1008 29.6944 24.1647 29.1091 24.2046 28.5183C24.2446 27.9275 24.2924 27.3312 24.2605 26.7404C24.2605 26.2821 24.0928 25.8239 24.005 25.3711C23.4379 27.022 23.1903 28.6785 24.0209 30.2907L24.0449 30.2797Z" fill="white"/>
</svg>