<svg width="285" height="278" viewBox="0 0 285 278" fill="none" xmlns="http://www.w3.org/2000/svg">
    <path d="M273.33 264.986C274.475 264.684 275.519 264.116 276.365 263.335C277.21 262.554 277.83 261.585 278.166 260.519C276.611 260.596 275.446 260.657 274.027 260.723L273.826 259.023C275.949 258.471 278 258.393 280.016 258.101C280.875 258.03 281.713 257.819 282.493 257.477C283.319 257.079 283.998 256.458 284.441 255.695C284.884 254.931 285.07 254.061 284.976 253.198C284.781 249.139 284.728 245.081 284.562 241.05C284.267 233.845 283.9 226.65 283.617 219.445C283.067 205.448 282.576 191.446 282.02 177.449C281.506 164.567 280.927 151.686 280.389 138.799C280.152 133.119 279.925 127.437 279.709 121.754C279.177 107.854 278.648 93.957 278.124 80.0613C277.517 64.4429 276.887 48.8209 276.232 33.1952C276.085 29.1334 275.443 25.1006 274.317 21.1749C271.621 11.9817 265.502 5.75903 255.836 2.59525C252.655 1.55176 249.356 0.855103 246.004 0.519166C241.357 0.0304876 236.676 -0.113555 232.004 0.0884711C223.42 0.502595 214.919 1.61243 206.399 2.55658C199.819 3.28543 193.227 3.98111 186.624 4.50565C177.756 5.2124 168.887 5.90811 159.96 6.31119C149.319 6.79706 138.677 7.1228 128.035 7.22772C116.956 7.33264 105.859 7.26639 94.7801 6.96823C82.1815 6.62592 69.5948 5.96887 57.0376 4.83695C49.7954 4.18543 42.5413 3.4621 35.2459 3.55045C30.4605 3.54312 25.6932 4.09967 21.057 5.20688C17.1481 6.13529 13.4723 7.77112 10.2379 10.0216C4.21948 14.3228 0.825955 19.9602 0.187466 27.0663C-0.261844 31.9528 0.187497 36.8062 0.583585 41.6595C1.11569 48.0313 1.76599 54.392 2.35721 60.7638C2.94842 67.3398 3.49823 73.9159 4.04803 80.492C4.55057 86.5656 5.02945 92.6392 5.53198 98.7128L7.30557 120.246C7.81402 126.419 8.2988 132.598 8.8013 138.771C9.39252 145.75 10.0488 152.729 10.5217 159.714C10.8961 165.287 11.1385 170.865 11.2489 176.449C11.6273 195.327 11.9111 214.205 12.254 233.083C12.3722 239.681 12.4964 246.279 12.7092 252.872C12.7706 254.798 12.9959 256.716 13.3831 258.609C14.4828 264.036 18.0596 267.443 23.6878 268.879C25.9959 269.436 28.2598 270.143 30.463 270.993C33.4782 272.202 36.7121 272.71 39.9223 273.147C42.2871 273.467 44.6519 273.649 47.0581 273.809C55.8513 274.417 64.6445 274.994 73.4376 275.543C77.7731 275.808 82.1086 276.029 86.4441 276.206C106.433 277.023 126.427 277.31 146.428 276.758C159.351 276.39 172.269 275.802 185.181 274.996C199.601 274.107 213.973 272.727 228.339 271.06C241.28 269.558 254.169 267.747 267.033 265.787C267.559 265.704 268.086 265.665 268.742 265.588C269.374 267.796 268.423 269.878 268.476 271.971C268.529 273.969 267.885 275.946 268.009 278C270.74 277.558 272.147 276.288 272.413 274.135C272.738 271.175 273.004 268.249 273.33 264.986ZM269.847 255.18C269.432 255.327 269.005 255.443 268.57 255.528C262.41 256.152 256.262 256.814 250.095 257.361C238.194 258.404 226.293 259.47 214.381 260.364C202.162 261.285 189.915 262.095 177.637 262.794C164.838 263.517 152.026 264.163 139.209 264.599C123.247 265.152 107.284 265.61 91.3215 265.814C73.4968 266.046 55.672 265.952 37.8472 265.996C36.6647 265.996 35.4823 265.908 34.2645 265.914C31.7164 265.914 29.659 264.925 27.844 263.341C25.9901 261.754 24.6435 259.719 23.9539 257.46C23.5488 256.199 23.2736 254.905 23.1321 253.595C22.464 246.318 21.8551 239.035 21.2462 231.752C20.714 225.375 20.2175 218.998 19.6913 212.626C19.1356 205.846 18.5503 199.071 17.9945 192.29C17.4684 185.913 17.0013 179.536 16.4456 173.164C15.9076 167.09 15.3223 161.017 15.3696 154.943C15.3696 152.304 15.3223 149.665 15.2691 147.026L13.4955 59.0356C13.3713 52.846 13.2117 46.6565 13.0816 40.4669C12.9752 35.2878 12.8806 30.1123 12.7978 24.9406C12.7799 24.332 12.8096 23.723 12.8865 23.1185C13.0994 21.6829 13.6965 21.1308 15.1922 21.0314C16.058 20.9679 16.9278 20.9679 17.7935 21.0314C19.7445 21.1805 21.6837 21.3958 23.6346 21.5835C37.587 22.8535 51.5572 23.897 65.5569 24.5982C80.7508 25.3676 95.9605 25.7559 111.186 25.7633C132.274 25.7633 153.351 25.2111 174.38 23.6596C185.536 22.8314 196.698 22.0363 207.824 20.8989C218.951 19.7614 230.018 18.2596 241.115 16.9234C244.336 16.4447 247.59 16.1864 250.852 16.1504C257.148 16.2498 261.872 18.8228 265.124 23.8197C266.613 26.1852 267.741 28.733 268.476 31.3896C270.072 36.8007 270.604 42.3663 270.983 47.954C271.574 56.6613 272.041 65.3797 272.579 74.0926C273.489 88.8901 274.061 103.699 274.293 118.518C274.49 132.73 274.536 146.943 274.429 161.155C274.311 173.943 274 186.728 273.495 199.512C273.046 211.174 272.313 222.83 271.603 234.48C271.254 240.36 270.746 246.23 270.291 252.099C270.202 253.071 270.007 254.059 269.847 255.18ZM263.214 13.7541C262.493 13.5277 262.097 13.4283 261.718 13.2848C259.112 12.2312 256.276 11.7677 253.441 11.932C250.198 12.1529 246.96 12.4566 243.728 12.8431C234.677 13.9198 225.643 15.14 216.586 16.1559C209.247 16.9658 201.896 17.6523 194.534 18.2155C184.034 19.0216 173.523 19.8056 163.005 20.3633C154.001 20.8437 144.979 21.0038 135.963 21.2798C109.649 22.086 83.3462 21.1805 57.1145 19.7228C53.7525 19.5351 50.4024 19.2995 47.064 19.0161C39.272 18.348 31.4917 17.6081 23.7056 16.9455C22.0798 16.8112 20.4458 16.7872 18.8163 16.8737C14.2818 17.1167 9.07327 19.7283 8.51754 26.0614C8.35202 27.9774 8.42297 29.9264 8.45843 31.8369L9.36886 77.4938C9.40436 79.1502 9.36886 80.8453 9.36886 82.5239C8.52936 76.8754 8.01501 71.2214 7.52432 65.5675C6.94494 58.8902 6.38327 52.2147 5.83938 45.5411C5.36639 39.6718 4.88165 33.8025 4.5683 27.9222C4.48153 25.7925 4.62018 23.6601 4.98214 21.5559C5.73297 16.697 8.43478 13.0363 13.259 11.01C15.4372 10.1009 17.7068 9.39618 20.0342 8.90628C26.2157 7.70792 32.5532 7.37116 38.8404 7.90689C46.526 8.45905 54.2117 9.07743 61.8973 9.66272C73.4889 10.5461 85.1001 11.0873 96.7311 11.286C105.853 11.4461 114.987 11.5234 124.116 11.402C134.434 11.2621 144.753 10.9768 155.071 10.5461C163.312 10.1872 171.548 9.55228 179.777 8.88968C187.244 8.29889 194.705 7.57559 202.155 6.81915C210.035 6.01853 217.892 4.98602 225.803 4.29584C232.842 3.58951 239.955 3.9043 246.891 5.22897C251.946 6.25043 256.646 8.02835 260.696 11.1093C261.767 11.7709 262.636 12.6826 263.214 13.7541ZM67.5256 270.303C71.9655 270.248 76.3936 270.204 80.8513 270.132C85.4154 270.055 89.9795 269.95 94.5436 269.867C98.9954 269.79 103.447 269.745 107.905 269.635C112.463 269.53 117.027 269.359 121.585 269.226C126.037 269.094 130.495 268.994 134.946 268.845C139.398 268.696 143.815 268.503 148.296 268.293C152.852 268.094 157.408 267.879 161.965 267.647C166.416 267.41 170.833 267.134 175.302 266.869C179.854 266.6 184.409 266.322 188.965 266.035C193.405 265.759 197.833 265.483 202.296 265.185C206.76 264.887 211.164 264.517 215.61 264.163C220.159 263.795 224.703 263.416 229.244 263.026C233.678 262.658 238.112 262.268 242.546 261.855C247.086 261.441 251.615 260.939 256.143 260.602C260.542 260.271 264.911 259.498 269.374 259.442C269.464 259.804 269.506 260.175 269.499 260.547C269.382 260.965 269.228 261.373 269.037 261.767C202.508 272.426 134.815 275.294 67.5256 270.303ZM274.79 254.81C274.601 254.434 274.423 254.258 274.435 254.081C275.618 236.158 276.835 218.241 278.059 200.092C278.172 201.511 278.302 202.709 278.355 203.913C278.985 218.722 279.61 233.528 280.229 248.333C280.288 249.752 280.347 251.177 280.329 252.596C280.265 253.18 280.14 253.757 279.957 254.318C278.083 254.484 276.386 254.644 274.772 254.799L274.79 254.81ZM17.7994 247.72C17.8408 248.306 17.8882 248.891 17.9177 249.482C17.9473 250.072 17.9827 250.669 17.959 251.26C17.959 251.718 17.8349 252.176 17.7699 252.629C17.3501 250.978 17.1668 249.322 17.7817 247.709L17.7994 247.72Z" fill="white"/>
</svg>