<svg width="414" height="260" viewBox="0 0 414 260" fill="none" xmlns="http://www.w3.org/2000/svg">
    <path d="M16.9528 247.829C15.2897 247.547 13.7727 247.015 12.5441 246.285C11.3154 245.554 10.4152 244.648 9.92783 243.651C12.1865 243.723 13.8783 243.78 15.9394 243.842L16.2314 242.251C13.1483 241.735 10.1683 241.663 7.23977 241.389C5.99272 241.323 4.77476 241.125 3.64142 240.806C2.44149 240.433 1.45569 239.853 0.812366 239.139C0.16904 238.425 -0.102032 237.611 0.0344443 236.804C0.317849 233.008 0.395151 229.213 0.635616 225.443C1.06502 218.704 1.59745 211.975 2.00968 205.236C2.80836 192.146 3.52118 179.05 4.32845 165.959C5.07561 153.912 5.91724 141.864 6.69875 129.812C7.04227 124.5 7.37147 119.186 7.68637 113.87C8.45929 100.871 9.22648 87.8734 9.98795 74.8775C10.8697 60.2704 11.7857 45.6598 12.7361 31.0458C12.9495 27.2471 13.883 23.4754 15.5186 19.8039C19.4348 11.2059 28.3234 5.38614 42.3648 2.42719C46.9851 1.45126 51.7775 0.799744 56.6466 0.485566C63.3971 0.0285042 70.1972 -0.1062 76.9831 0.0827646C89.4529 0.470063 101.802 1.50803 114.178 2.39105C123.736 3.07269 133.312 3.72336 142.905 4.21393C155.787 4.87491 168.669 5.52558 181.637 5.90254C197.095 6.35698 212.553 6.66164 228.012 6.75975C244.106 6.85787 260.225 6.79592 276.319 6.51706C294.621 6.19689 312.904 5.58239 331.145 4.52378C341.666 3.91443 352.203 3.23795 362.801 3.32056C369.752 3.31373 376.677 3.83423 383.412 4.86976C389.09 5.73806 394.43 7.26795 399.128 9.37273C407.871 13.3955 412.8 18.6678 413.728 25.3138C414.38 29.8839 413.728 34.4231 413.152 38.9622C412.379 44.9214 411.435 50.8702 410.576 56.8294C409.717 62.9797 408.918 69.13 408.12 75.2803C407.39 80.9606 406.694 86.641 405.964 92.3213L403.388 112.461C402.649 118.234 401.945 124.012 401.215 129.786C400.356 136.313 399.403 142.84 398.716 149.373C398.172 154.585 397.82 159.802 397.659 165.025C397.11 182.68 396.698 200.336 396.199 217.991C396.028 224.162 395.847 230.333 395.538 236.499C395.449 238.3 395.122 240.094 394.559 241.864C392.962 246.94 387.766 250.127 379.59 251.469C376.237 251.991 372.949 252.651 369.748 253.447C365.369 254.578 360.671 255.053 356.008 255.461C352.572 255.76 349.137 255.931 345.642 256.081C332.869 256.649 320.095 257.189 307.322 257.702C301.024 257.95 294.726 258.156 288.429 258.322C259.392 259.086 230.348 259.355 201.295 258.838C182.521 258.494 163.756 257.945 145 257.191C124.054 256.359 103.176 255.068 82.3076 253.509C63.5084 252.104 44.7866 250.411 26.0991 248.577C25.3347 248.5 24.5704 248.464 23.6171 248.391C22.6982 250.457 24.0809 252.404 24.0036 254.361C23.9263 256.23 24.8624 258.079 24.6821 260C20.7144 259.587 18.6704 258.399 18.284 256.385C17.8116 253.617 17.4252 250.88 16.9528 247.829ZM22.0112 238.657C22.6143 238.795 23.2345 238.904 23.8662 238.983C32.8149 239.566 41.7464 240.186 50.7037 240.697C67.9914 241.673 85.2791 242.67 102.584 243.506C120.332 244.367 138.124 245.124 155.958 245.778C174.551 246.455 193.162 247.059 211.781 247.467C234.968 247.983 258.156 248.412 281.343 248.603C307.236 248.82 333.129 248.732 359.022 248.774C360.74 248.774 362.457 248.691 364.226 248.696C367.928 248.696 370.916 247.772 373.553 246.29C376.246 244.806 378.202 242.902 379.204 240.79C379.792 239.611 380.192 238.4 380.398 237.175C381.368 230.369 382.253 223.558 383.137 216.747C383.91 210.782 384.631 204.818 385.396 198.859C386.203 192.517 387.053 186.181 387.861 179.84C388.625 173.876 389.303 167.911 390.111 161.952C390.892 156.272 391.742 150.591 391.674 144.911C391.674 142.443 391.742 139.974 391.82 137.506L394.396 55.2131C394.576 49.4243 394.808 43.6355 394.997 37.8467C395.152 33.003 395.289 28.1626 395.409 23.3257C395.435 22.7566 395.392 22.187 395.281 21.6216C394.971 20.279 394.104 19.7626 391.931 19.6696C390.674 19.6102 389.41 19.6102 388.153 19.6696C385.318 19.8091 382.502 20.0105 379.668 20.186C359.4 21.3737 339.106 22.3497 318.77 23.0056C296.699 23.7251 274.605 24.0883 252.488 24.0951C221.854 24.0951 191.238 23.5788 160.69 22.1277C144.485 21.3531 128.271 20.6095 112.108 19.5457C95.9454 18.4819 79.8686 17.0773 63.7489 15.8277C59.0697 15.38 54.3423 15.1383 49.6045 15.1047C40.4582 15.1977 33.5964 17.6041 28.873 22.2774C26.7102 24.4897 25.0713 26.8726 24.0036 29.3572C21.6848 34.4179 20.9119 39.6232 20.3623 44.8491C19.5035 52.9926 18.825 61.1465 18.0435 69.2952C16.721 83.1346 15.8908 96.9843 15.553 110.844C15.2667 124.136 15.2009 137.428 15.3555 150.72C15.5272 162.68 15.9795 174.638 16.7124 186.594C17.365 197.501 18.43 208.402 19.4605 219.298C19.9672 224.797 20.7058 230.287 21.3671 235.776C21.4959 236.685 21.7793 237.609 22.0112 238.657ZM31.6469 12.8635C32.6947 12.6518 33.2701 12.5589 33.8197 12.4246C37.6057 11.4393 41.7254 11.0058 45.8429 11.1594C50.5549 11.366 55.2582 11.65 59.953 12.0115C73.1013 13.0185 86.2238 14.1597 99.3806 15.1099C110.041 15.8673 120.719 16.5093 131.414 17.036C146.666 17.79 161.936 18.5233 177.214 19.0448C190.293 19.4941 203.399 19.6438 216.495 19.902C254.721 20.6559 292.929 19.8091 331.034 18.4458C335.917 18.2702 340.784 18.0499 345.633 17.7848C356.952 17.16 368.254 16.468 379.565 15.8483C381.926 15.7227 384.3 15.7002 386.667 15.7812C393.254 16.0084 400.82 18.4509 401.627 24.374C401.868 26.1659 401.765 27.9888 401.713 29.7755L400.39 72.4762C400.339 74.0254 400.39 75.6108 400.39 77.1806C401.61 71.8979 402.357 66.61 403.07 61.3221C403.912 55.0772 404.727 48.8339 405.518 42.5924C406.205 37.1031 406.909 31.6139 407.364 26.1143C407.49 24.1225 407.289 22.1282 406.763 20.1602C405.672 15.6159 401.747 12.1923 394.74 10.2971C391.575 9.44686 388.279 8.7878 384.898 8.32961C375.918 7.20887 366.712 6.89388 357.579 7.39493C346.415 7.91134 335.25 8.48969 324.086 9.03707C307.248 9.8633 290.381 10.3694 273.485 10.5553C260.234 10.705 246.966 10.7773 233.706 10.6637C218.717 10.5329 203.728 10.2661 188.739 9.86328C176.767 9.52764 164.804 8.93378 152.85 8.3141C142.003 7.76155 131.165 7.08508 120.344 6.37763C108.896 5.62885 97.4826 4.66318 85.9919 4.01769C75.767 3.35712 65.4337 3.65149 55.3584 4.8904C48.0157 5.84573 41.1882 7.50853 35.3054 10.39C33.7483 11.0087 32.4871 11.8614 31.6469 12.8635ZM315.91 252.801C309.461 252.75 303.028 252.709 296.553 252.641C289.923 252.569 283.293 252.471 276.663 252.393C270.196 252.321 263.729 252.28 257.254 252.177C250.633 252.079 244.003 251.918 237.381 251.794C230.915 251.671 224.439 251.578 217.972 251.438C211.506 251.299 205.09 251.118 198.581 250.922C191.962 250.736 185.344 250.534 178.725 250.318C172.258 250.096 165.843 249.837 159.351 249.589C152.738 249.338 146.122 249.078 139.504 248.81C133.054 248.552 126.622 248.293 120.138 248.014C113.654 247.736 107.256 247.39 100.798 247.059C94.1906 246.715 87.5892 246.36 80.9936 245.995C74.5526 245.651 68.1116 245.286 61.6706 244.901C55.075 244.513 48.4966 244.043 41.9182 243.728C35.5287 243.419 29.1822 242.696 22.6982 242.644C22.5674 242.982 22.5068 243.329 22.5179 243.677C22.6872 244.068 22.9113 244.45 23.1877 244.818C119.83 254.787 218.163 257.469 315.91 252.801ZM14.8316 238.311C15.1064 237.96 15.364 237.795 15.3469 237.63C13.6293 220.868 11.8602 204.111 10.0824 187.137C9.91926 188.464 9.73032 189.584 9.65303 190.71C8.73698 204.56 7.8295 218.408 6.93062 232.254C6.84474 233.581 6.75885 234.914 6.78461 236.241C6.87872 236.787 7.0599 237.326 7.32566 237.852C10.0481 238.007 12.5128 238.156 14.8574 238.301L14.8316 238.311ZM388.144 231.681C388.084 232.228 388.015 232.776 387.972 233.328C387.929 233.881 387.878 234.438 387.912 234.991C387.912 235.42 388.092 235.848 388.187 236.272C388.797 234.728 389.063 233.178 388.17 231.671L388.144 231.681Z" fill="white"/>
</svg>