<svg width="357" height="388" viewBox="0 0 357 388" fill="none" xmlns="http://www.w3.org/2000/svg">
    <path d="M12.1409 65.4045C12.0813 63.9013 12.3241 62.454 12.8466 61.1981C13.3691 59.9422 14.1543 58.9188 15.1285 58.2238C15.5466 60.1787 15.8569 61.6438 16.2427 63.4267L18.0323 63.234C17.9147 60.4492 17.3381 57.8764 16.9912 55.2915C16.789 54.2049 16.7355 53.1065 16.8333 52.0467C16.9733 50.9152 17.3866 49.9091 18.0195 49.1593C18.6524 48.4095 19.4756 47.9508 20.3818 47.8428C24.5614 47.029 28.6957 46.0387 32.8379 45.1953C40.2426 43.6872 47.6588 42.2703 55.0597 40.7475C69.4358 37.7876 83.7987 34.7528 98.1767 31.8003C111.41 29.0867 124.664 26.454 137.91 23.7683C143.748 22.5839 149.585 21.3867 155.42 20.1768C169.692 17.2203 183.96 14.2593 198.225 11.2939C214.265 7.98306 230.315 4.70065 246.377 1.44671C250.545 0.572039 254.842 0.321798 259.184 0.700849C269.372 1.66207 277.639 7.65618 283.935 18.8606C286.01 22.5468 287.77 26.4707 289.181 30.5543C291.161 36.2096 292.802 41.9972 294.088 47.8627C296.409 58.6524 297.998 69.5203 299.76 80.367C301.122 88.7447 302.521 97.1285 304.098 105.482C306.212 116.701 308.338 127.918 310.78 139.131C313.685 152.5 316.753 165.826 320.044 179.096C323.476 192.909 327.086 206.701 330.926 220.409C335.297 235.997 339.982 251.489 345.14 266.819C348.114 275.662 351.164 284.5 353.404 293.601C354.94 299.554 355.897 305.631 356.254 311.688C356.561 316.794 356.075 321.794 354.824 326.405C352.382 335.014 347.746 340.704 340.741 343.349C335.927 345.18 330.859 345.884 325.809 346.655C319.174 347.652 312.513 348.498 305.86 349.422C299 350.398 292.152 351.426 285.305 352.454C278.983 353.41 272.668 354.395 266.345 355.351L243.932 358.75C237.507 359.725 231.084 360.73 224.66 361.712C217.391 362.793 210.101 363.793 202.863 365.023C197.09 366.008 191.353 367.159 185.652 368.475C166.379 372.919 147.136 377.481 127.874 381.969C121.142 383.54 114.408 385.103 107.651 386.555C105.678 386.979 103.66 387.198 101.616 387.209C95.7583 387.254 91.1598 383.69 87.9062 377.06C86.6036 374.334 85.1638 371.7 83.5973 369.18C81.4077 365.743 79.8597 361.851 78.3921 357.97C77.3121 355.111 76.3721 352.216 75.4413 349.263C72.0173 338.48 68.6232 327.688 65.2589 316.889C63.6056 311.563 61.9972 306.226 60.4335 300.877C53.2218 276.217 46.5459 251.411 40.7197 226.38C36.9664 210.202 33.4372 193.975 30.1321 177.699C26.4296 159.524 23.2408 141.281 20.3452 122.97C17.7364 106.475 15.4584 89.9662 13.3392 73.4478C13.2552 72.7715 13.1264 72.1067 12.9953 71.2699C10.5526 71.0578 8.74462 72.7841 6.60454 73.2627C4.55971 73.7169 2.76003 75.0334 0.636517 75.4137C0.212493 71.8999 1.05161 69.8184 3.15135 68.9267C6.05009 67.7516 8.93409 66.6587 12.1409 65.4045ZM23.2016 67.1846C23.1848 67.7395 23.2032 68.3012 23.2565 68.8642C24.5906 76.6923 25.8817 84.5157 27.2961 92.331C30.0375 107.412 32.7565 122.498 35.6529 137.555C38.6208 152.998 41.7101 168.449 44.9209 183.909C48.2741 200.024 51.7096 216.134 55.3598 232.197C59.8967 252.204 64.5289 272.186 69.4187 292.102C74.8751 314.343 80.6621 336.499 86.309 358.691C86.6866 360.162 87.1538 361.611 87.5371 363.127C88.3507 366.298 90.0104 368.601 92.1976 370.447C94.3992 372.341 96.8943 373.487 99.4057 373.757C100.814 373.932 102.215 373.938 103.589 373.773C111.186 372.71 118.769 371.571 126.352 370.433C132.992 369.435 139.621 368.393 146.253 367.388C153.31 366.315 160.37 365.279 167.427 364.206C174.065 363.2 180.684 362.121 187.326 361.154C193.66 360.242 200.008 359.389 206.155 357.749C208.833 357.062 211.526 356.433 214.22 355.812L304.057 335.112C310.376 333.655 316.707 332.242 323.028 330.792C328.316 329.576 333.597 328.347 338.871 327.103C339.494 326.967 340.102 326.772 340.691 326.519C342.08 325.88 342.449 324.993 342.072 323.106C341.86 322.012 341.583 320.93 341.242 319.869C340.467 317.48 339.63 315.123 338.816 312.745C333.073 295.713 327.553 278.601 322.371 261.363C316.739 242.657 311.488 223.832 306.619 204.888C299.885 178.647 293.716 152.276 288.575 125.705C285.853 111.607 283.095 97.5107 280.696 83.3694C278.297 69.228 276.287 55.0654 274.099 40.909C273.556 36.776 272.779 32.6592 271.774 28.5913C269.663 20.7824 265.544 15.5743 259.436 12.829C256.561 11.5922 253.616 10.8516 250.686 10.6286C244.686 10.051 238.87 10.8379 233.08 11.8218C224.057 13.3531 215.063 15.0417 206.051 16.6406C190.748 19.3601 175.541 22.5043 160.432 26.0732C145.95 29.528 131.517 33.1717 117.132 37.0042C104.196 40.4806 91.3231 44.1968 78.5141 48.1528C66.8266 51.7479 55.2353 55.6946 43.6421 59.6105C37.7875 61.5755 31.9952 63.7362 26.1858 65.8307C25.2282 66.1941 24.2878 66.6941 23.2016 67.1846ZM270.258 12.5847C270.718 13.4233 270.945 13.8903 271.212 14.3237C273.113 17.2926 274.489 20.7009 275.227 24.2709C276.039 28.3647 276.765 32.4728 277.405 36.5951C279.203 48.1384 280.849 59.6971 282.711 71.232C284.232 80.5749 285.883 89.9004 287.663 99.2086C290.197 112.484 292.759 125.768 295.551 139.001C297.939 150.33 300.657 161.598 303.256 172.889C310.841 205.843 320.158 238.337 330.013 270.599C331.277 274.734 332.586 278.841 333.94 282.922C337.106 292.444 340.341 301.933 343.499 311.449C344.155 313.437 344.701 315.464 345.133 317.514C346.335 323.22 345.348 330.381 339.1 332.721C337.209 333.426 335.209 333.845 333.26 334.298L286.648 345.052C284.956 345.439 283.248 345.925 281.545 346.362C287.543 345.936 293.444 345.104 299.337 344.242C306.296 343.225 313.248 342.186 320.192 341.125C326.298 340.186 332.408 339.261 338.474 338.12C340.662 337.674 342.781 336.946 344.8 335.948C349.49 333.748 352.341 329.433 352.857 322.903C353.084 319.956 353.074 316.948 352.828 313.924C352.07 305.92 350.388 297.947 347.836 290.263C344.822 280.843 341.741 271.44 338.693 262.029C334.095 247.835 329.838 233.527 325.923 219.106C322.847 207.796 319.852 196.45 317.061 185.06C313.908 172.184 310.902 159.27 308.045 146.318C305.777 135.969 303.792 125.556 301.836 115.143C300.051 105.698 298.402 96.2252 296.791 86.7588C295.087 76.744 293.626 66.6982 291.8 56.6752C290.269 47.7325 287.678 38.9627 284.12 30.6769C281.469 24.6529 278.165 19.2673 273.746 15.0301C272.732 13.8685 271.53 13.0255 270.258 12.5847ZM72.4628 322.882C71.1011 317.342 69.732 311.821 68.3814 306.255C67.0024 300.556 65.6515 294.849 64.2781 289.148C62.935 283.588 61.5583 278.037 60.2469 272.462C58.8979 266.762 57.6141 261.038 56.2931 255.332C55.006 249.758 53.6834 244.185 52.4132 238.607C51.1429 233.028 49.9288 227.483 48.7107 221.852C47.4575 216.13 46.2211 210.405 45.0015 204.675C43.8208 199.073 42.6907 193.506 41.5324 187.876C40.3514 182.141 39.1792 176.401 38.0156 170.657C36.8779 165.06 35.744 159.478 34.6212 153.847C33.4984 148.215 32.4674 142.638 31.4062 137.013C30.3273 131.258 29.2609 125.504 28.2069 119.753C27.1645 114.139 26.1445 108.52 25.1469 102.896C24.1172 97.1379 23.1809 91.3718 22.0766 85.6489C21.0082 80.0893 20.3973 74.4515 19.0281 68.8828C18.6322 68.865 18.2425 68.9097 17.8681 69.0159C17.481 69.2698 17.1161 69.568 16.7773 69.9074C27.207 155.468 45.9132 240.449 72.4628 322.882ZM21.9987 60.9381C22.4401 61.0758 22.676 61.2505 22.8514 61.1897C40.6573 55.0523 58.4462 48.8722 76.4686 42.6244C74.993 42.854 73.7359 43.0041 72.4977 43.2513C57.2724 46.3219 42.0507 49.3994 26.8329 52.4838C25.3743 52.7797 23.9102 53.077 22.4762 53.4685C21.9043 53.7011 21.3589 54.0065 20.8474 54.3804C21.2777 56.7556 21.6571 58.9087 22.0156 60.9573L21.9987 60.9381ZM111.253 378.879C110.645 378.98 110.037 379.074 109.428 379.191C108.819 379.308 108.203 379.419 107.611 379.602C107.146 379.721 106.721 379.995 106.282 380.194C108.091 380.286 109.83 380.083 111.269 378.898L111.253 378.879Z" fill="white"/>
</svg>