<svg width="300" height="440" viewBox="0 0 300 440" fill="none" xmlns="http://www.w3.org/2000/svg">
    <path d="M29.438 38.0618C29.5292 36.3762 29.8557 34.8155 30.387 33.5257C30.9183 32.236 31.6371 31.2595 32.476 30.6876C32.6283 32.9502 32.74 34.6452 32.8825 36.7096L34.3235 36.8657C34.4867 33.7416 34.2653 30.7583 34.2277 27.8093C34.167 26.5579 34.2257 25.3243 34.4012 24.1648C34.6168 22.9343 35.0383 21.8999 35.6108 21.1964C36.1832 20.4929 36.8802 20.1527 37.6108 20.2202C41.0099 20.1798 44.3892 19.9335 47.7612 19.8523C53.7891 19.7069 59.8178 19.6652 65.8442 19.5026C77.5503 19.1846 89.2528 18.7804 100.96 18.471C111.734 18.1905 122.518 18.0044 133.3 17.7577C138.052 17.6481 142.804 17.524 147.557 17.3855C159.179 17.0496 170.8 16.7081 182.418 16.361C195.48 15.9967 208.547 15.6664 221.621 15.3702C225.017 15.2595 228.457 15.8706 231.875 17.1917C239.889 20.371 245.911 28.7549 249.886 42.5303C251.196 47.0629 252.234 51.7951 252.98 56.6326C254.033 63.3376 254.805 70.1195 255.287 76.9148C256.138 89.4055 256.4 101.831 256.802 114.27C257.113 123.877 257.452 133.499 257.936 143.124C258.584 156.05 259.241 168.975 260.149 181.962C261.227 197.444 262.438 212.913 263.833 228.365C265.288 244.452 266.888 260.55 268.679 276.605C270.718 294.861 273.016 313.074 275.705 331.207C277.255 341.665 278.866 352.135 279.809 362.729C280.481 369.673 280.682 376.635 280.408 383.452C280.181 389.199 279.334 394.663 277.914 399.536C275.178 408.613 270.967 413.988 265.152 415.481C261.154 416.522 257.059 416.257 252.971 416.069C247.603 415.805 242.228 415.368 236.851 415.018C231.305 414.685 225.765 414.411 220.224 414.137C215.108 413.892 209.995 413.682 204.879 413.437L186.74 412.579C181.54 412.334 176.339 412.123 171.14 411.886C165.259 411.584 159.369 411.188 153.5 411.059C148.818 410.959 144.149 411.052 139.494 411.337C123.756 412.293 108.032 413.387 92.2989 414.394C86.8002 414.748 81.3008 415.094 75.7935 415.311C74.1848 415.375 72.5595 415.201 70.9332 414.79C66.2704 413.627 62.9418 408.708 60.9653 400.655C60.1807 397.35 59.2784 394.121 58.2649 390.991C56.8404 386.712 55.968 382.059 55.1586 377.435C54.5632 374.029 54.0825 370.612 53.6144 367.133C51.8854 354.42 50.1808 341.706 48.5007 328.989C47.6768 322.718 46.8896 316.444 46.139 310.166C42.6768 281.224 39.654 252.23 37.3278 223.162C35.8341 204.377 34.5232 185.584 33.395 166.782C32.1258 145.785 31.2714 124.818 30.6564 103.837C30.1022 84.9363 29.8123 66.0884 29.6496 47.2629C29.6451 46.4927 29.604 45.7261 29.5768 44.7676C27.6537 44.0256 26.0567 45.5729 24.3106 45.6625C22.6425 45.7446 21.0898 46.8374 19.366 46.821C19.3526 42.822 20.2119 40.6788 21.964 40.121C24.3777 39.4132 26.772 38.7938 29.438 38.0618ZM38.0705 42.3334C38.006 42.9477 37.9688 43.5766 37.9593 44.2143C38.2987 53.204 38.6043 62.1797 39.0088 71.1718C39.7989 88.5257 40.5706 105.881 41.4863 123.241C42.423 141.045 43.4556 158.884 44.5841 176.757C45.7654 195.389 47.0125 214.033 48.4349 232.668C50.1988 255.877 52.0408 279.078 54.0938 302.26C56.3831 328.146 58.9431 354.006 61.3884 379.877C61.5531 381.593 61.7911 383.302 61.9561 385.069C62.311 388.767 63.4186 391.674 64.988 394.182C66.5643 396.746 68.4431 398.538 70.4155 399.358C71.5196 399.846 72.6332 400.142 73.7412 400.243C79.8807 400.632 86.0165 400.935 92.1524 401.238C97.5251 401.502 102.893 401.714 108.26 401.97C113.971 402.236 119.682 402.545 125.393 402.811C130.765 403.066 136.128 403.236 141.5 403.534C146.621 403.831 151.749 404.196 156.789 403.643C158.982 403.433 161.181 403.291 163.381 403.158L236.736 398.717C241.896 398.403 247.061 398.142 252.222 397.837C256.54 397.578 260.853 397.303 265.162 397.011C265.67 396.988 266.172 396.897 266.663 396.737C267.827 396.314 268.202 395.403 268.077 393.224C268.009 391.963 267.888 390.701 267.714 389.449C267.319 386.63 266.87 383.833 266.442 381.017C263.444 360.87 260.632 340.68 258.1 320.419C255.345 298.431 252.904 276.389 250.778 254.295C247.842 223.691 245.366 193.061 243.727 162.419C242.861 146.164 241.968 129.902 241.363 113.665C240.759 97.427 240.466 81.2463 240.031 65.0358C239.98 60.3229 239.742 55.5796 239.317 50.8436C238.358 41.7142 235.562 35.0642 230.958 30.7438C228.785 28.7717 226.511 27.3375 224.202 26.4827C219.483 24.5975 214.785 24.2691 210.09 24.1654C202.773 24.0017 195.464 24.0189 188.15 23.9328C175.728 23.7913 163.345 24.1425 150.999 24.9865C139.163 25.8335 127.348 26.9008 115.555 28.1883C104.946 29.3793 94.3663 30.8505 83.8148 32.6018C74.1883 34.1835 64.606 36.1767 55.0249 38.135C50.1877 39.11 45.3819 40.3158 40.5686 41.4443C39.7736 41.6505 38.9796 42.0124 38.0705 42.3334ZM239.587 32.7125C239.876 33.7412 240.013 34.3081 240.185 34.8458C241.424 38.5441 242.204 42.6228 242.462 46.7494C242.73 51.4743 242.928 56.1973 243.057 60.9183C243.423 74.1395 243.667 87.3464 244.084 100.571C244.433 111.286 244.886 122.008 245.444 132.738C246.236 148.039 247.048 163.356 248.049 178.664C248.904 191.769 250.027 204.874 251.053 217.98C254.048 256.232 258.463 294.331 263.326 332.282C263.95 337.146 264.613 341.989 265.313 346.811C266.953 358.066 268.651 369.298 270.286 380.544C270.624 382.893 270.871 385.262 271.026 387.634C271.456 394.234 270.011 402 264.827 403.312C263.258 403.705 261.629 403.757 260.036 403.858L221.975 406.177C220.593 406.257 219.19 406.444 217.795 406.578C222.605 407.346 227.375 407.641 232.141 407.903C237.769 408.211 243.394 408.494 249.015 408.751C253.957 408.97 258.901 409.205 263.831 409.191C265.612 409.147 267.365 408.776 269.062 408.083C272.995 406.606 275.66 402.394 276.672 395.231C277.124 391.998 277.394 388.648 277.477 385.231C277.612 376.165 277.009 366.941 275.688 357.86C274.159 346.75 272.575 335.646 271.019 324.539C268.671 307.788 266.604 290.981 264.82 274.118C263.416 260.892 262.08 247.643 260.91 234.386C259.59 219.401 258.39 204.404 257.311 189.395C256.461 177.406 255.842 165.404 255.247 153.409C254.698 142.526 254.26 131.64 253.851 120.77C253.419 109.269 253.183 97.7848 252.655 86.2503C252.262 75.9791 251.01 65.6809 248.943 55.7212C247.391 48.4671 245.259 41.788 242.135 36.1566C241.436 34.6538 240.558 33.4665 239.587 32.7125ZM53.6775 337.15C53.1052 330.703 52.5253 324.273 51.9642 317.798C51.3929 311.169 50.8445 304.537 50.2778 297.907C49.7221 291.44 49.1389 284.976 48.61 278.498C48.0624 271.875 47.5691 265.238 47.0445 258.613C46.5347 252.142 45.9966 245.665 45.5006 239.192C45.0046 232.72 44.5502 226.296 44.1005 219.776C43.6312 213.148 43.1757 206.519 42.7339 199.888C42.3113 193.409 41.9257 186.978 41.5236 180.47C41.113 173.843 40.7097 167.211 40.3138 160.576C39.925 154.111 39.5378 147.663 39.1639 141.162C38.7901 134.66 38.4842 128.239 38.1587 121.759C37.8313 115.129 37.5135 108.504 37.2054 101.884C36.8939 95.4196 36.6006 88.9538 36.3257 82.4862C36.0376 75.8641 35.8245 69.252 35.4737 62.6532C35.1365 56.2436 35.1704 49.8416 34.5947 43.3596C34.2815 43.2578 33.9675 43.2268 33.6599 43.2675C33.3287 43.47 33.011 43.7264 32.7103 44.034C33.1179 141.432 40.1614 239.897 53.6775 337.15ZM37.6896 35.1314C38.0279 35.376 38.1994 35.6193 38.3446 35.588C53.0713 32.4433 67.7885 29.2475 82.6975 26.0246C81.5029 25.9747 80.4893 25.8815 79.4818 25.9002C67.09 26.1657 54.7006 26.4395 42.3135 26.7218C41.1263 26.7491 39.9345 26.7769 38.7579 26.9158C38.2817 27.0563 37.8197 27.2833 37.3784 27.5936C37.5018 30.3266 37.605 32.8017 37.7013 35.1562L37.6896 35.1314ZM79.365 407.513C78.8729 407.5 78.3801 407.478 77.8851 407.482C77.3901 407.486 76.8897 407.482 76.4021 407.564C76.0213 407.6 75.6578 407.817 75.2907 407.947C76.7209 408.425 78.1226 408.559 79.3766 407.538L79.365 407.513Z" fill="white"/>
</svg>