<svg width="266" height="406" viewBox="0 0 266 406" fill="none" xmlns="http://www.w3.org/2000/svg">
    <path d="M29.3861 16.2301C29.7658 14.6804 30.3765 13.285 31.161 12.1747C31.9455 11.0644 32.8782 10.2755 33.8717 9.88179C33.656 12.0069 33.4918 13.5986 33.2989 15.5381L34.8149 15.9186C35.5124 13.0454 35.7748 10.24 36.2281 7.49652C36.3726 6.32493 36.642 5.18945 37.0238 4.14186C37.4605 3.03494 38.0847 2.14374 38.8152 1.58429C39.5456 1.02483 40.3484 0.823024 41.119 1.00513C44.7636 1.52337 48.4214 1.84726 52.0438 2.3233C58.5194 3.17385 64.9785 4.12089 71.4552 4.95525C84.0367 6.57406 96.6286 8.11224 109.21 9.73916C120.788 11.2404 132.36 12.8307 143.94 14.3647C149.045 15.0399 154.151 15.7017 159.261 16.3502C171.756 17.9387 184.249 19.5216 196.742 21.0991C210.781 22.8965 224.822 24.7265 238.864 26.5891C242.516 27.0415 246.096 28.1713 249.533 29.9564C257.577 34.2179 262.619 42.9847 264.568 56.4214C265.211 60.8429 265.53 65.4052 265.519 70.0176C265.523 76.4135 265.214 82.8349 264.593 89.2215C263.414 100.955 261.614 112.532 259.962 124.143C258.687 133.112 257.44 142.099 256.347 151.112C254.876 163.216 253.416 175.321 252.214 187.525C250.777 202.072 249.484 216.629 248.391 231.2C247.256 246.37 246.274 261.575 245.503 276.77C244.63 294.049 244.041 311.332 243.884 328.603C243.792 338.564 243.764 348.545 243 358.533C242.557 365.089 241.607 371.585 240.173 377.867C238.968 383.164 237.147 388.098 234.812 392.39C230.365 400.368 224.958 404.668 218.485 405.103C214.032 405.416 209.694 404.501 205.35 403.658C199.65 402.535 193.97 401.251 188.274 400.047C182.394 398.83 176.511 397.67 170.627 396.511C165.192 395.447 159.756 394.415 154.321 393.351L135.052 389.59C129.528 388.511 123.997 387.465 118.473 386.395C112.229 385.154 105.992 383.823 99.7322 382.743C94.7374 381.886 89.7252 381.209 84.6956 380.712C67.6927 379.026 50.6809 377.47 33.6747 375.833C27.7306 375.263 21.787 374.685 15.8567 373.985C14.1242 373.782 12.414 373.355 10.7422 372.707C5.94667 370.865 3.20761 365.755 2.44021 357.956C2.15369 354.76 1.72844 351.615 1.16751 348.545C0.359149 344.34 0.204224 339.878 0.111859 335.454C0.0447928 332.195 0.102307 328.944 0.183644 325.638C0.460834 313.555 0.764612 301.474 1.09496 289.395C1.2627 283.44 1.47031 277.488 1.71779 271.538C2.85647 244.106 4.47411 216.699 6.8498 189.336C8.39511 171.656 10.1375 153.997 12.0771 136.36C14.2329 116.662 16.8278 97.0602 19.6813 77.484C22.2516 59.8493 25.0959 42.3066 28.0725 24.8055C28.1967 24.0898 28.281 23.3715 28.4123 22.4773C26.4783 21.4742 24.5102 22.6493 22.6265 22.447C20.8275 22.2505 18.9829 23.011 17.1407 22.7139C17.7958 18.9997 19.074 17.1508 21.0426 16.9195C23.7442 16.6572 26.4104 16.4737 29.3861 16.2301ZM37.9099 21.6066C37.7381 22.1662 37.593 22.7439 37.4761 23.3344C36.3347 31.7344 35.1596 40.1159 34.0874 48.5288C32.0285 64.7665 29.9496 81.0029 28.0241 97.266C26.0466 113.946 24.1661 130.673 22.3824 147.448C20.5282 164.936 18.7426 182.446 17.1458 199.976C15.1491 221.808 13.2372 243.646 11.5545 265.499C9.67204 289.902 8.08363 314.325 6.37064 338.739C6.25965 340.358 6.22841 341.984 6.10911 343.652C5.86994 347.142 6.56884 350.021 7.82873 352.606C9.08662 355.243 10.7974 357.214 12.771 358.298C13.871 358.931 15.0133 359.388 16.1822 359.663C22.6877 361.028 29.2037 362.313 35.7197 363.597C41.4257 364.72 47.135 365.795 52.8365 366.91C58.904 368.091 64.9637 369.311 71.0312 370.492C76.7377 371.607 82.4498 372.641 88.1485 373.797C93.5798 374.909 99.0067 376.087 104.493 376.397C106.875 376.561 109.253 376.789 111.63 377.025L190.88 384.896C196.454 385.449 202.026 386.051 207.6 386.611C212.265 387.078 216.927 387.527 221.587 387.96C222.134 388.023 222.687 388.02 223.24 387.952C224.555 387.749 225.11 386.965 225.34 384.922C225.478 383.74 225.56 382.549 225.584 381.359C225.633 378.677 225.62 376.008 225.634 373.324C225.797 354.133 226.167 334.931 226.848 315.711C227.58 294.85 228.657 273.991 230.08 253.134C232.059 224.247 234.536 195.41 237.91 166.7C239.705 151.469 241.47 136.228 243.541 121.057C245.612 105.886 248.006 90.8187 250.254 75.7005C250.988 71.3176 251.527 66.8756 251.865 62.4101C252.367 53.7791 250.488 47.1492 246.283 42.386C244.288 40.2002 242.094 38.4971 239.765 37.326C235.031 34.8048 230.058 33.7317 225.05 32.8678C217.247 31.5194 209.422 30.3405 201.608 29.0646C188.338 26.9023 175.026 25.2036 161.673 23.9685C148.864 22.8196 136.041 21.8785 123.203 21.1453C111.65 20.5164 100.081 20.1522 88.4954 20.0526C77.9282 19.9469 67.3393 20.2302 56.7577 20.4815C51.4176 20.5957 46.0724 20.9292 40.7323 21.1897C39.8469 21.2511 38.9365 21.4572 37.9099 21.6066ZM255.189 45.6243C255.325 46.6264 255.378 47.1751 255.472 47.7023C256.178 51.3377 256.33 55.2512 255.916 59.1238C255.412 63.5536 254.834 67.97 254.182 72.3733C252.36 84.7055 250.411 97.0046 248.644 109.349C247.224 119.351 245.915 129.378 244.715 139.429C243.002 153.762 241.308 168.112 239.817 182.485C238.539 194.789 237.547 207.138 236.452 219.471C233.254 255.467 231.603 291.554 230.456 327.577C230.31 332.194 230.208 336.797 230.15 341.388C230.022 352.103 229.96 362.806 229.827 373.513C229.795 375.748 229.664 377.988 229.433 380.215C228.788 386.412 225.942 393.385 220.173 393.754C218.429 393.863 216.676 393.645 214.955 393.478L173.833 389.407C172.341 389.256 170.808 389.2 169.293 389.096C174.312 390.596 179.367 391.65 184.424 392.672C190.396 393.878 196.368 395.061 202.34 396.218C207.593 397.229 212.845 398.256 218.123 399.049C220.037 399.3 221.975 399.242 223.908 398.876C228.364 398.148 231.922 394.673 234.203 388.19C235.228 385.263 236.077 382.197 236.738 379.04C238.4 370.646 239.299 361.986 239.405 353.34C239.628 342.778 239.792 332.212 239.985 321.647C240.275 305.714 240.877 289.775 241.789 273.831C242.501 261.325 243.289 248.808 244.255 236.311C245.35 222.185 246.576 208.068 247.933 193.96C249.031 182.693 250.377 171.451 251.747 160.219C252.981 150.027 254.335 139.852 255.716 129.694C257.179 118.949 258.848 108.25 260.214 97.4566C261.512 87.8582 261.895 78.0944 261.351 68.5115C260.903 61.5241 259.74 54.9759 257.339 49.2379C256.843 47.7286 256.101 46.4829 255.189 45.6243ZM5.26931 297.818C5.7359 291.739 6.19141 285.676 6.67462 279.575C7.17279 273.327 7.6959 267.082 8.19906 260.835C8.68669 254.741 9.14441 248.646 9.6625 242.547C10.185 236.309 10.7679 230.068 11.3154 223.832C11.8529 217.742 12.361 211.642 12.9134 205.553C13.4658 199.464 14.0548 193.426 14.6648 187.301C15.2719 181.072 15.8939 174.844 16.5308 168.617C17.163 162.533 17.8267 156.501 18.4854 150.395C19.1553 144.176 19.8336 137.954 20.5204 131.731C21.1863 125.666 21.8511 119.617 22.5392 113.521C23.2273 107.425 23.9746 101.415 24.7109 95.3466C25.47 89.1389 26.2388 82.9373 27.0171 76.7418C27.7656 70.6907 28.5339 64.641 29.3222 58.5926C30.1222 52.3985 31.0007 46.2262 31.7298 40.0436C32.4417 34.0388 33.5495 28.1018 34.0183 21.9908C33.7001 21.8451 33.3692 21.7651 33.0332 21.7525C32.6449 21.8863 32.262 22.0723 31.8886 22.3087C16.0234 112.783 7.08124 205.334 5.26931 297.818ZM38.7077 14.8591C39.0288 15.1415 39.1717 15.3954 39.3322 15.3901C55.6195 14.8788 71.9051 14.3187 88.4006 13.7647C87.1304 13.5231 86.0612 13.2708 84.9798 13.1235C71.6734 11.3438 58.368 9.57233 45.0638 7.80907C43.7886 7.64032 42.5085 7.47123 41.2261 7.40776C40.6928 7.46038 40.1605 7.59556 39.6363 7.81143C39.3108 10.3684 39.007 12.6828 38.716 14.8841L38.7077 14.8591ZM20.9841 367.331C20.4597 367.238 19.9359 367.137 19.4055 367.06C18.875 366.983 18.3401 366.898 17.8047 366.894C17.3911 366.865 16.9658 367.007 16.551 367.068C18.0017 367.745 19.4795 368.099 20.9924 367.356L20.9841 367.331Z" fill="white"/>
</svg>