<svg width="304" height="463" viewBox="0 0 304 463" fill="none" xmlns="http://www.w3.org/2000/svg">
    <path d="M75.9501 15.6518C76.5475 14.0045 77.3525 12.5526 78.2898 11.4319C79.2271 10.3112 80.266 9.55844 81.3092 9.24409C80.793 11.5383 80.4038 13.2563 79.9366 15.3507L81.3891 15.9419C82.4904 12.8872 83.1495 9.85593 83.9897 6.91442C84.2997 5.65256 84.7287 4.44461 85.2569 3.34563C85.8481 2.18828 86.595 1.28811 87.4003 0.762326C88.2056 0.236539 89.0321 0.109473 89.772 0.397672C93.3201 1.38628 96.9091 2.16432 100.441 3.1043C106.755 4.7842 113.04 6.56746 119.357 8.22981C131.63 11.4569 143.925 14.5971 156.196 17.8329C167.488 20.8152 178.762 23.894 190.052 26.9123C195.029 28.2417 200.009 29.5567 204.994 30.8574C217.186 34.0413 229.376 37.2191 241.567 40.3907C255.263 43.9819 268.956 47.6088 282.645 51.2714C286.21 52.1891 289.607 53.8375 292.769 56.1847C300.158 61.7692 303.923 71.9222 303.951 86.8126C303.962 91.7127 303.631 96.7289 302.964 101.761C302.061 108.742 300.841 115.714 299.317 122.612C296.478 135.281 293.046 147.706 289.755 160.187C287.213 169.827 284.698 179.49 282.331 189.2C279.151 202.239 275.981 215.281 273.053 228.46C269.558 244.169 266.206 259.906 263.049 275.681C259.767 292.106 256.632 308.586 253.707 325.079C250.385 343.836 247.346 362.629 244.736 381.46C243.23 392.32 241.785 403.21 239.606 414.022C238.235 421.125 236.369 428.104 234.051 434.794C232.101 440.435 229.59 445.609 226.66 450.021C221.108 458.212 215.125 462.277 208.63 462.001C204.16 461.826 199.979 460.323 195.783 458.899C190.277 457.012 184.815 454.951 179.327 452.976C173.656 450.966 167.974 449.017 162.292 447.068C157.043 445.276 151.786 443.519 146.537 441.727L127.923 435.386C122.587 433.568 117.239 431.784 111.901 429.975C105.873 427.896 99.8637 425.719 93.7966 423.814C88.9549 422.299 84.0702 420.978 79.1427 419.852C62.4856 416.039 45.8014 412.366 29.1342 408.605C23.3082 407.293 17.484 405.972 11.6902 404.521C9.99739 404.098 8.35854 403.433 6.78917 402.532C2.28531 399.966 0.289258 394.07 0.634363 385.47C0.803619 381.949 0.827719 378.467 0.706452 375.051C0.500428 370.368 0.980149 365.481 1.51681 360.642C1.9131 357.077 2.43197 353.536 2.98238 349.937C4.97405 336.783 6.99189 323.634 9.03587 310.489C10.0484 304.01 11.1002 297.537 12.1913 291.073C17.2192 261.267 22.7195 231.544 28.967 201.957C33.0139 182.84 37.2537 163.771 41.6863 144.747C46.6264 123.501 51.9893 102.409 57.6055 81.3753C62.6645 62.4278 67.9828 43.6126 73.4266 24.8581C73.6517 24.0915 73.8375 23.3172 74.095 22.3567C72.3156 21.0374 70.1929 22.0914 68.3497 21.652C66.5898 21.2287 64.6488 21.8446 62.8603 21.3065C64.0389 17.3291 65.5717 15.4596 67.5608 15.4357C70.2828 15.4629 72.9584 15.5722 75.9501 15.6518ZM83.6568 22.5088C83.4065 23.0996 83.1803 23.7132 82.9803 24.344C80.6529 33.379 78.2946 42.3898 76.0342 51.4469C71.6818 68.9291 67.3097 86.4075 63.0862 103.933C58.752 121.907 54.5073 139.944 50.3522 158.045C46.0255 176.916 41.764 195.817 37.6872 214.764C32.602 238.359 27.6003 261.97 22.8241 285.624C17.4873 312.038 12.4399 338.507 7.26984 364.953C6.92949 366.708 6.66761 368.478 6.31214 370.284C5.57868 374.066 5.86423 377.29 6.74916 380.256C7.62453 383.281 9.04473 385.63 10.8519 387.042C11.8552 387.861 12.9254 388.492 14.048 388.928C20.3188 391.173 26.6116 393.331 32.9044 395.489C38.415 397.377 43.9359 399.213 49.4434 401.091C55.3052 403.084 61.1537 405.12 67.0155 407.113C72.5279 408.992 78.0573 410.784 83.5562 412.706C88.7955 414.551 94.0212 416.465 99.4289 417.441C101.773 417.896 104.103 418.421 106.432 418.955L184.068 436.744C189.529 437.994 194.98 439.297 200.44 440.556C205.009 441.606 209.578 442.638 214.147 443.652C214.683 443.784 215.232 443.844 215.791 443.834C217.127 443.766 217.79 442.975 218.309 440.772C218.614 439.498 218.864 438.207 219.057 436.911C219.486 433.99 219.853 431.075 220.248 428.148C223.137 407.222 226.231 386.31 229.638 365.412C233.328 342.731 237.361 320.091 241.737 297.494C247.808 266.197 254.365 235.013 261.796 204.072C265.743 187.658 269.662 171.23 273.875 154.913C278.088 138.596 282.607 122.43 286.988 106.192C288.34 101.494 289.507 96.7083 290.477 91.8741C292.201 82.5127 291.276 75.0591 287.774 69.3726C286.102 66.7555 284.164 64.6423 282.016 63.0938C277.67 59.7928 272.88 58.0444 268.026 56.5203C260.463 54.143 252.855 51.9481 245.271 49.6488C232.391 45.7486 219.404 42.3496 206.309 39.4517C193.744 36.7111 181.135 34.1957 168.482 31.9054C157.09 29.8781 145.645 28.1378 134.146 26.6843C123.66 25.3424 113.098 24.4226 102.546 23.4686C97.2235 22.9734 91.8644 22.7169 86.5207 22.3814C85.6321 22.3457 84.6982 22.465 83.6568 22.5088ZM296.164 73.9405C296.157 75.0499 296.132 75.6549 296.15 76.2412C296.336 80.2906 295.931 84.5793 294.969 88.7577C293.839 93.5337 292.638 98.2865 291.364 103.016C287.802 116.264 284.118 129.46 280.609 142.727C277.777 153.479 275.052 164.27 272.432 175.099C268.694 190.543 264.972 206.008 261.449 221.521C258.431 234.801 255.692 248.162 252.851 261.495C244.561 300.409 237.794 339.6 231.538 378.781C230.737 383.803 229.982 388.816 229.273 393.819C227.623 405.498 226.041 417.172 224.388 428.841C224.039 431.277 223.59 433.706 223.044 436.11C221.523 442.798 217.704 450.077 211.92 449.811C210.171 449.727 208.46 449.286 206.774 448.904L166.487 439.688C165.026 439.35 163.51 439.111 162.019 438.822C166.794 441.041 171.667 442.778 176.548 444.48C182.311 446.49 188.078 448.474 193.849 450.43C198.925 452.143 203.998 453.874 209.131 455.352C210.997 455.847 212.931 456.009 214.904 455.834C219.435 455.557 223.464 452.178 226.652 445.367C228.087 442.291 229.366 439.044 230.471 435.675C233.314 426.707 235.438 417.36 236.772 407.937C238.494 396.436 240.157 384.923 241.849 373.416C244.401 356.061 247.263 338.736 250.434 321.44C252.918 307.874 255.478 294.305 258.214 280.779C261.308 265.49 264.532 250.226 267.884 234.986C270.575 222.817 273.51 210.705 276.467 198.605C279.141 187.626 281.931 176.677 284.747 165.753C287.727 154.195 290.905 142.712 293.795 131.091C296.449 120.767 298.217 110.155 299.037 99.6339C299.585 91.9562 299.358 84.6747 297.788 78.1338C297.509 76.429 296.949 74.9835 296.164 73.9405ZM11.9878 320.166C13.3148 313.586 14.6287 307.022 15.9755 300.419C17.358 293.659 18.7649 286.903 20.1522 280.144C21.5023 273.551 22.8229 266.952 24.2041 260.355C25.6094 253.608 27.0752 246.864 28.5049 240.122C29.904 233.538 31.2754 226.94 32.6892 220.359C34.1031 213.778 35.5459 207.257 37.0222 200.642C38.5102 193.915 40.0129 187.19 41.5304 180.468C43.0227 173.902 44.5391 167.396 46.061 160.808C47.61 154.099 49.1678 147.388 50.7342 140.675C52.2574 134.134 53.7772 127.61 55.3269 121.037C56.8765 114.464 58.4729 107.991 60.0664 101.454C61.7026 94.7669 63.3474 88.088 65.0009 81.4168C66.6041 74.8997 68.227 68.3865 69.8694 61.877C71.5442 55.2099 73.294 48.5756 74.8966 41.9128C76.457 35.4421 78.4011 29.0913 79.735 22.4764C79.4395 22.2805 79.122 22.1547 78.79 22.102C78.385 22.2029 77.9781 22.3615 77.5735 22.5761C48.9566 119.475 26.9246 219.443 11.9878 320.166ZM85.408 15.2375C85.687 15.5829 85.7929 15.8766 85.9532 15.8894C102.211 17.222 118.474 18.5009 134.945 19.811C133.717 19.3999 132.691 19.0004 131.637 18.7141C118.667 15.2274 105.696 11.7497 92.7257 8.28108C91.4825 7.94891 90.2343 7.61577 88.969 7.39766C88.4316 7.3932 87.8834 7.47893 87.3318 7.65368C86.6452 10.4065 86.0146 12.897 85.4127 15.2657L85.408 15.2375ZM17.7306 397.854C17.2227 397.692 16.7165 397.521 16.2003 397.375C15.6841 397.229 15.1647 397.074 14.6332 397.007C14.2262 396.928 13.7835 397.034 13.3627 397.052C14.7081 397.959 16.1264 398.517 17.7353 397.882L17.7306 397.854Z" fill="white"/>
</svg>